<?xml version="1.0" encoding="UTF-8" standalone="no"?>
<!-- Created with Inkscape (http://www.inkscape.org/) -->

<svg
   width="16.000000px"
   height="16.000000px"
   id="svg2"
   sodipodi:version="0.32"
   inkscape:version="1.2.1 (9c6d41e4, 2022-07-14)"
   sodipodi:docname="ball_emote.svg"
   inkscape:export-filename="g:\newcode\java\dc\rev2\ball0700.png"
   inkscape:export-xdpi="90.000000"
   inkscape:export-ydpi="90.000000"
   version="1.1"
   xmlns:inkscape="http://www.inkscape.org/namespaces/inkscape"
   xmlns:sodipodi="http://sodipodi.sourceforge.net/DTD/sodipodi-0.dtd"
   xmlns="http://www.w3.org/2000/svg"
   xmlns:svg="http://www.w3.org/2000/svg"
   xmlns:rdf="http://www.w3.org/1999/02/22-rdf-syntax-ns#"
   xmlns:cc="http://creativecommons.org/ns#"
   xmlns:dc="http://purl.org/dc/elements/1.1/">
  <defs
     id="defs4" />
  <sodipodi:namedview
     id="base"
     pagecolor="#ffffff"
     bordercolor="#666666"
     borderopacity="1.0"
     inkscape:pageopacity="0.0"
     inkscape:pageshadow="2"
     inkscape:zoom="44.8"
     inkscape:cx="11.529018"
     inkscape:cy="8.8950892"
     inkscape:document-units="px"
     inkscape:current-layer="layer1"
     borderlayer="top"
     inkscape:showpageshadow="false"
     inkscape:window-width="1920"
     inkscape:window-height="1027"
     inkscape:window-x="0"
     inkscape:window-y="25"
     showgrid="true"
     inkscape:window-maximized="1"
     inkscape:pagecheckerboard="0"
     inkscape:deskcolor="#d1d1d1">
    <inkscape:grid
       type="xygrid"
       id="grid855" />
  </sodipodi:namedview>
  <metadata
     id="metadata7">
    <rdf:RDF>
      <cc:Work
         rdf:about="">
        <dc:format>image/svg+xml</dc:format>
        <dc:type
           rdf:resource="http://purl.org/dc/dcmitype/StillImage" />
      </cc:Work>
    </rdf:RDF>
  </metadata>
  <g
     inkscape:label="Layer 1"
     inkscape:groupmode="layer"
     id="layer1">
    <path
       sodipodi:type="arc"
       style="opacity:1;fill:#ffffff;fill-opacity:1;fill-rule:evenodd;stroke:#000000;stroke-width:0.99942777;stroke-linecap:butt;stroke-linejoin:round;stroke-miterlimit:4;stroke-dasharray:none;stroke-opacity:1"
       id="path1306"
       sodipodi:cx="19.950512"
       sodipodi:cy="20.049488"
       sodipodi:rx="19.950512"
       sodipodi:ry="19.950512"
       d="M 39.901024 20.049488 A 19.950512 19.950512 0 1 1  0.00000000,20.049488 A 19.950512 19.950512 0 1 1  39.901024 20.049488 z"
       transform="matrix(0.379217,0.000000,0.000000,0.379217,0.434427,0.396893)" />
    <path
       style="color:#000000;display:none;overflow:visible;visibility:visible;fill:#ffffff;fill-opacity:0.351598;fill-rule:evenodd;stroke:none;stroke-width:2;marker:none"
       d="m 1.4095118,9.7105195 c 0,0 -0.54082329,-3.7983406 1.0564921,-5.9364793 1.5973152,-2.1381388 5.3327692,-2.6160756 5.3327692,-2.6160756 0,0 -2.4837351,1.1709323 -4.0810507,3.3090709 -1.5973153,2.1381389 -2.3082106,5.243484 -2.3082106,5.243484 z"
       id="path2767"
       sodipodi:nodetypes="cscsc"
       inkscape:connector-curvature="0" />
    <path
       style="color:#000000;display:none;overflow:visible;visibility:visible;fill:#ffffff;fill-opacity:0.39726;fill-rule:evenodd;stroke:none;stroke-width:2;marker:none"
       d="m 1.6890046,7.631036 c 0,0 0.099986,-2.579673 0.9604171,-3.731431 C 3.5098524,2.7478473 5.593189,2.0990822 5.593189,2.0990822 c 0,0 -1.3850826,0.9962887 -2.2455136,2.1480464 C 2.4872446,5.3988866 1.6890046,7.631036 1.6890046,7.631036 Z"
       id="path3497"
       sodipodi:nodetypes="cscsc"
       inkscape:connector-curvature="0" />
    <path
       style="color:#000000;display:none;overflow:visible;visibility:visible;opacity:1;fill:#000000;fill-opacity:0.219608;fill-rule:evenodd;stroke:none;stroke-width:2;stroke-linecap:butt;stroke-linejoin:miter;stroke-miterlimit:4;stroke-dasharray:none;stroke-dashoffset:0;stroke-opacity:1;marker:none;marker-start:none;marker-mid:none;marker-end:none"
       d="m 14.443078,6.1941895 c 0,0 0.540824,3.7983408 -1.056492,5.9364785 -1.597315,2.138139 -5.3327695,2.616076 -5.3327695,2.616076 0,0 2.7292715,-1.081647 4.3265865,-3.219785 1.597316,-2.1381387 2.062675,-5.3327695 2.062675,-5.3327695 z"
       id="path3499"
       sodipodi:nodetypes="cscsc" />
    <path
       style="color:#000000;display:none;overflow:visible;visibility:visible;opacity:1;fill:#000000;fill-opacity:0.172549;fill-rule:evenodd;stroke:none;stroke-width:2;stroke-linecap:butt;stroke-linejoin:miter;stroke-miterlimit:4;stroke-dasharray:none;stroke-dashoffset:0;stroke-opacity:1;marker:none;marker-start:none;marker-mid:none;marker-end:none"
       d="m 14.163585,8.273673 c 0,0 -0.09999,2.579673 -0.960417,3.731431 -0.86043,1.151757 -2.943767,1.800522 -2.943767,1.800522 0,0 1.541332,-0.973967 2.401763,-2.125724 0.860431,-1.151759 1.502421,-3.406229 1.502421,-3.406229 z"
       id="path3501"
       sodipodi:nodetypes="cscsc" />
    <path
       style="color:#000000;display:none;overflow:visible;visibility:visible;fill:#ffffff;fill-opacity:0.435294;fill-rule:evenodd;stroke:none;stroke-width:2;marker:none"
       d="m 2.2247189,5.6221072 c 0,0 -0.1009069,-0.4814587 0.7595242,-1.6332167 0.8604307,-1.1517577 1.3143031,-1.0415942 1.3143031,-1.0415942 0,0 -0.3136541,0.036467 -1.1740851,1.188225 -0.8604308,1.151758 -0.8997422,1.4865859 -0.8997422,1.4865859 z"
       id="path3497-1"
       sodipodi:nodetypes="cscsc"
       inkscape:connector-curvature="0" />
  </g>
</svg>
