<?xml version="1.0" encoding="UTF-8" standalone="no"?>
<!-- Created with Inkscape (http://www.inkscape.org/) -->

<svg
   xmlns:dc="http://purl.org/dc/elements/1.1/"
   xmlns:cc="http://creativecommons.org/ns#"
   xmlns:rdf="http://www.w3.org/1999/02/22-rdf-syntax-ns#"
   xmlns:svg="http://www.w3.org/2000/svg"
   xmlns="http://www.w3.org/2000/svg"
   xmlns:sodipodi="http://sodipodi.sourceforge.net/DTD/sodipodi-0.dtd"
   xmlns:inkscape="http://www.inkscape.org/namespaces/inkscape"
   width="16.000000px"
   height="16.000000px"
   id="svg2"
   sodipodi:version="0.32"
   inkscape:version="0.48.4 r9939"
   sodipodi:docname="ball0600.svg"
   inkscape:export-filename="g:\newcode\java\dc\rev2\ball0700.png"
   inkscape:export-xdpi="90.000000"
   inkscape:export-ydpi="90.000000"
   version="1.1">
  <defs
     id="defs4" />
  <sodipodi:namedview
     id="base"
     pagecolor="#ffffff"
     bordercolor="#666666"
     borderopacity="1.0"
     inkscape:pageopacity="0.0"
     inkscape:pageshadow="2"
     inkscape:zoom="15.839192"
     inkscape:cx="15.020104"
     inkscape:cy="5.2105671"
     inkscape:document-units="px"
     inkscape:current-layer="layer1"
     borderlayer="top"
     inkscape:showpageshadow="false"
     inkscape:window-width="1440"
     inkscape:window-height="824"
     inkscape:window-x="0"
     inkscape:window-y="0"
     showgrid="false"
     inkscape:window-maximized="1" />
  <metadata
     id="metadata7">
    <rdf:RDF>
      <cc:Work
         rdf:about="">
        <dc:format>image/svg+xml</dc:format>
        <dc:type
           rdf:resource="http://purl.org/dc/dcmitype/StillImage" />
        <dc:title></dc:title>
      </cc:Work>
    </rdf:RDF>
  </metadata>
  <g
     inkscape:label="Layer 1"
     inkscape:groupmode="layer"
     id="layer1">
    <path
       sodipodi:type="arc"
       style="opacity:1;fill:#0e0e0e;fill-opacity:1;fill-rule:evenodd;stroke:#000000;stroke-width:2;stroke-linecap:butt;stroke-linejoin:round;stroke-miterlimit:4;stroke-dasharray:none;stroke-opacity:1"
       id="path1306"
       sodipodi:cx="19.950512"
       sodipodi:cy="20.049488"
       sodipodi:rx="19.950512"
       sodipodi:ry="19.950512"
       d="M 39.901024 20.049488 A 19.950512 19.950512 0 1 1  0.00000000,20.049488 A 19.950512 19.950512 0 1 1  39.901024 20.049488 z"
       transform="matrix(0.379217,0.000000,0.000000,0.379217,0.434427,0.396893)" />
    <path
       style="color:#000000;fill:#ffffff;fill-opacity:0.35159817;fill-rule:evenodd;stroke:none;stroke-width:2;marker:none;visibility:visible;display:inline;overflow:visible"
       d="m 1.4095118,9.7105195 c 0,0 -0.54082329,-3.7983406 1.0564921,-5.9364793 1.5973152,-2.1381388 5.3327692,-2.6160756 5.3327692,-2.6160756 0,0 -2.4837351,1.1709323 -4.0810507,3.3090709 -1.5973153,2.1381389 -2.3082106,5.243484 -2.3082106,5.243484 z"
       id="path2767"
       sodipodi:nodetypes="cscsc"
       inkscape:connector-curvature="0" />
    <path
       style="color:#000000;fill:#ffffff;fill-opacity:0.39726028;fill-rule:evenodd;stroke:none;stroke-width:2;marker:none;visibility:visible;display:inline;overflow:visible"
       d="m 1.6890046,7.631036 c 0,0 0.099986,-2.579673 0.9604171,-3.731431 C 3.5098524,2.7478473 5.593189,2.0990822 5.593189,2.0990822 c 0,0 -1.3850826,0.9962887 -2.2455136,2.1480464 C 2.4872446,5.3988866 1.6890046,7.631036 1.6890046,7.631036 z"
       id="path3497"
       sodipodi:nodetypes="cscsc"
       inkscape:connector-curvature="0" />
    <path
       style="opacity:1.0000000;color:#000000;fill:#000000;fill-opacity:0.21960784;fill-rule:evenodd;stroke:none;stroke-width:2.0000000;stroke-linecap:butt;stroke-linejoin:miter;marker:none;marker-start:none;marker-mid:none;marker-end:none;stroke-miterlimit:4.0000000;stroke-dasharray:none;stroke-dashoffset:0.00000000;stroke-opacity:1.0000000;visibility:visible;display:inline;overflow:visible"
       d="M 14.443078,6.1941895 C 14.443078,6.1941895 14.983902,9.9925303 13.386586,12.130668 C 11.789271,14.268807 8.0538165,14.746744 8.0538165,14.746744 C 8.0538165,14.746744 10.783088,13.665097 12.380403,11.526959 C 13.977719,9.3888203 14.443078,6.1941895 14.443078,6.1941895 z "
       id="path3499"
       sodipodi:nodetypes="cscsc" />
    <path
       style="opacity:1.0000000;color:#000000;fill:#000000;fill-opacity:0.17254902;fill-rule:evenodd;stroke:none;stroke-width:2.0000000;stroke-linecap:butt;stroke-linejoin:miter;marker:none;marker-start:none;marker-mid:none;marker-end:none;stroke-miterlimit:4.0000000;stroke-dasharray:none;stroke-dashoffset:0.00000000;stroke-opacity:1.0000000;visibility:visible;display:inline;overflow:visible"
       d="M 14.163585,8.2736730 C 14.163585,8.2736730 14.063599,10.853346 13.203168,12.005104 C 12.342738,13.156861 10.259401,13.805626 10.259401,13.805626 C 10.259401,13.805626 11.800733,12.831659 12.661164,11.679902 C 13.521595,10.528143 14.163585,8.2736730 14.163585,8.2736730 z "
       id="path3501"
       sodipodi:nodetypes="cscsc" />
    <path
       style="color:#000000;fill:#ffffff;fill-opacity:0.43529412;fill-rule:evenodd;stroke:none;stroke-width:2;marker:none;visibility:visible;display:inline;overflow:visible"
       d="m 2.2247189,5.6221072 c 0,0 -0.1009069,-0.4814587 0.7595242,-1.6332167 0.8604307,-1.1517577 1.3143031,-1.0415942 1.3143031,-1.0415942 0,0 -0.3136541,0.036467 -1.1740851,1.188225 -0.8604308,1.151758 -0.8997422,1.4865859 -0.8997422,1.4865859 z"
       id="path3497-1"
       sodipodi:nodetypes="cscsc"
       inkscape:connector-curvature="0" />
  </g>
</svg>
