<?xml version="1.0" encoding="UTF-8" standalone="no"?>
<!-- Created with Inkscape (http://www.inkscape.org/) -->

<svg
   width="256"
   height="256"
   id="svg2"
   sodipodi:version="0.32"
   inkscape:version="1.1.2 (0a00cf5339, 2022-02-04)"
   sodipodi:docname="dotsweep_steam_achievement_oops!.svg"
   inkscape:export-filename="g:\newcode\java\dc\rev2\ball0700.png"
   inkscape:export-xdpi="90.000000"
   inkscape:export-ydpi="90.000000"
   version="1.1"
   xmlns:inkscape="http://www.inkscape.org/namespaces/inkscape"
   xmlns:sodipodi="http://sodipodi.sourceforge.net/DTD/sodipodi-0.dtd"
   xmlns="http://www.w3.org/2000/svg"
   xmlns:svg="http://www.w3.org/2000/svg"
   xmlns:rdf="http://www.w3.org/1999/02/22-rdf-syntax-ns#"
   xmlns:cc="http://creativecommons.org/ns#"
   xmlns:dc="http://purl.org/dc/elements/1.1/">
  <defs
     id="defs4" />
  <sodipodi:namedview
     id="base"
     pagecolor="#ffffff"
     bordercolor="#666666"
     borderopacity="1.0"
     inkscape:pageopacity="0.0"
     inkscape:pageshadow="2"
     inkscape:zoom="1.979899"
     inkscape:cx="200.0102"
     inkscape:cy="96.722107"
     inkscape:document-units="px"
     inkscape:current-layer="layer1"
     borderlayer="true"
     inkscape:showpageshadow="false"
     inkscape:window-width="1680"
     inkscape:window-height="986"
     inkscape:window-x="0"
     inkscape:window-y="0"
     showgrid="false"
     inkscape:window-maximized="1"
     inkscape:pagecheckerboard="0"
     inkscape:snap-global="false" />
  <metadata
     id="metadata7">
    <rdf:RDF>
      <cc:Work
         rdf:about="">
        <dc:format>image/svg+xml</dc:format>
        <dc:type
           rdf:resource="http://purl.org/dc/dcmitype/StillImage" />
      </cc:Work>
    </rdf:RDF>
  </metadata>
  <g
     inkscape:label="Layer 1"
     inkscape:groupmode="layer"
     id="layer1">
    <rect
       style="fill:#2f97da;fill-opacity:1;stroke:none"
       id="rect4477"
       width="466.67209"
       height="414.73792"
       x="-103.38654"
       y="-318.23059"
       transform="matrix(-0.00228683,0.99999739,-0.99999912,-0.00132987,0,0)" />
    <g
       id="g2538"
       transform="translate(534.67453)">
      <path
         style="fill:#000000;fill-opacity:0.0508005;stroke:none;stroke-width:1px;stroke-linecap:butt;stroke-linejoin:miter;stroke-opacity:1"
         d="m 107.01059,262.01693 c 0,0 27.79868,-16.57952 35.43351,-27.67049 7.63484,-11.09097 10.51932,-34.25212 10.51932,-34.25212 L 270.84912,59.774593 122.8894,40.60537 190.40981,-7.0217439 159.28448,-7.964816 -36.981053,59.837727 l 1.998602,13.230631 131.400722,16.02828 -28.48354,14.333512 c 0,0 -21.274169,0.27631 -30.870814,2.2689 -9.596645,1.99259 -15.879279,2.78937 -26.295533,9.18607 -10.41625441,6.3967 -32.802336,31.514 -32.802336,31.514 l -40.167374,11.58321 V -21.05734 H 301.11227 v 287.44759 z"
         id="path1908"
         sodipodi:nodetypes="czccccccccczzcccccc" />
      <path
         style="fill:#000000;fill-opacity:0.0508005;stroke:none;stroke-width:1px;stroke-linecap:butt;stroke-linejoin:miter;stroke-opacity:1"
         d="m 136.04353,258.09989 c 0,0 15.8943,-7.58811 21.1342,-12.80134 5.2399,-5.21323 7.90966,-9.52961 10.26089,-16.74665 2.35123,-7.21704 2.07449,-25.81892 2.07449,-25.81892 L 296.52483,54.574497 285.08649,49.13923 161.1077,34.245257 l 51.80106,-44.898159 -64.14621,-3.384486 -201.714559,67.968749 3.66211,25.043248 115.119977,11.809431 -4.870257,5.877511 c 0,0 -21.503983,0.123553 -32.096819,2.219587 -10.592836,2.096032 -19.1185019,4.454422 -30.9430801,10.311102 -11.8245779,5.85668 -38.4751669,26.21513 -38.4751669,26.21513 l -20.820313,2.97293 1.363003,-161.376952 362.456745,-0.696149 3.0692,151.549941 0.004,136.88337 z"
         id="path2116"
         sodipodi:nodetypes="czzcccccccccczzccccccc" />
      <path
         style="fill:#000000;fill-opacity:0.0508005;stroke:none;stroke-width:1px;stroke-linecap:butt;stroke-linejoin:miter;stroke-opacity:1"
         d="m 159.39891,261.69856 c 0,0 19.2359,-10.79485 23.93588,-17.65597 4.69998,-6.86112 4.77527,-12.86987 5.29739,-19.44741 0.52212,-6.57754 -2.08542,-19.32114 -2.08542,-19.32114 L 315.21692,59.671999 309.13035,40.15159 195.28695,27.137985 l 48.77735,-45.585107 -96.55244,-8.732295 -212.530565,75.611496 1.819064,37.391428 86.656093,5.985943 -23.56299153,5.214518 -57.75231447,21.872172 -25.044681,1.04961 11.186651,-148.492424 260.191224,-7.347281 145.38305,9.308397 -7.2585,209.170628 -35.62564,102.96059 z"
         id="path2364"
         sodipodi:nodetypes="czzcccccccccccccccccc" />
    </g>
    <path
       style="fill:none;stroke:#fffffd;stroke-width:4;stroke-linecap:butt;stroke-linejoin:miter;stroke-miterlimit:4;stroke-dasharray:none;stroke-opacity:1"
       d="M 115.8177,8.6154397 130.0131,46.519836 143.87205,8.5469657 Z"
       id="path1800"
       sodipodi:nodetypes="cccc" />
    <path
       style="fill:none;stroke:#fffffd;stroke-width:4;stroke-linecap:butt;stroke-linejoin:miter;stroke-miterlimit:4;stroke-dasharray:none;stroke-opacity:1"
       d="M 50.811864,33.278245 82.763005,58.125321 74.671125,18.520639 Z"
       id="path1800-6"
       sodipodi:nodetypes="cccc"
       inkscape:transform-center-x="61.206839"
       inkscape:transform-center-y="-95.937179" />
    <path
       style="fill:none;stroke:#fffffd;stroke-width:4;stroke-linecap:butt;stroke-linejoin:miter;stroke-miterlimit:4;stroke-dasharray:none;stroke-opacity:1"
       d="m 183.35738,21.412605 -7.55529,39.76393 31.56485,-25.252122 z"
       id="path1800-6-7"
       sodipodi:nodetypes="cccc"
       inkscape:transform-center-x="-62.93734"
       inkscape:transform-center-y="-94.840588" />
    <path
       style="fill:none;stroke:#fffffd;stroke-width:4;stroke-linecap:butt;stroke-linejoin:miter;stroke-miterlimit:4;stroke-dasharray:none;stroke-opacity:1"
       d="M 12.788306,82.286467 52.570402,89.745521 27.241974,58.241869 Z"
       id="path1800-3"
       sodipodi:nodetypes="cccc"
       inkscape:transform-center-x="95.15588"
       inkscape:transform-center-y="-61.856864" />
    <path
       style="fill:none;stroke:#fffffd;stroke-width:4;stroke-linecap:butt;stroke-linejoin:miter;stroke-miterlimit:4;stroke-dasharray:none;stroke-opacity:1"
       d="M 229.03258,59.069546 203.8788,90.7798 243.55961,83.069889 Z"
       id="path1800-3-5"
       sodipodi:nodetypes="cccc"
       inkscape:transform-center-x="-95.729115"
       inkscape:transform-center-y="-60.925886" />
    <path
       d="M 0,0"
       style="fill:#ffffff;fill-opacity:1;stroke:none;stroke-width:4;stroke-linecap:butt;stroke-linejoin:miter;stroke-opacity:1;stroke-miterlimit:4;stroke-dasharray:none"
       id="path3112" />
    <path
       style="fill:#ffffff;stroke:none;stroke-width:1px;stroke-linecap:butt;stroke-linejoin:miter;stroke-opacity:1;fill-opacity:0.2624692"
       d="m 27.413504,64.331055 -9.813058,15.496652 5.721262,-3.258929 4.757952,-7.093331 z"
       id="path3326" />
    <g
       id="g6623">
      <g
         id="g2109"
         transform="matrix(1.0471619,0.17889943,-0.17889943,1.0471619,68.753555,-63.572268)">
        <g
           id="g1423"
           transform="matrix(8.6878948,0,0,8.6878948,14.40033,102.49076)">
          <circle
             style="opacity:1;fill:none;fill-opacity:1;fill-rule:evenodd;stroke:#ffffff;stroke-width:2;stroke-linecap:butt;stroke-linejoin:round;stroke-miterlimit:4;stroke-dasharray:none;stroke-opacity:1"
             id="path1306"
             transform="matrix(0.379217,0,0,0.379217,0.434427,0.396893)"
             cx="19.950512"
             cy="20.049488"
             r="19.950512" />
          <path
             style="color:#000000;display:inline;overflow:visible;visibility:visible;fill:#ffffff;fill-opacity:0.351598;fill-rule:evenodd;stroke:none;stroke-width:2;marker:none"
             d="m 1.4095118,9.7105195 c 0,0 -0.54082329,-3.7983406 1.0564921,-5.9364793 1.5973152,-2.1381388 5.3327692,-2.6160756 5.3327692,-2.6160756 0,0 -2.4837351,1.1709323 -4.0810507,3.3090709 -1.5973153,2.1381389 -2.3082106,5.243484 -2.3082106,5.243484 z"
             id="path2767"
             sodipodi:nodetypes="cscsc"
             inkscape:connector-curvature="0" />
          <path
             style="color:#000000;display:inline;overflow:visible;visibility:visible;fill:#ffffff;fill-opacity:0.39726;fill-rule:evenodd;stroke:none;stroke-width:2;marker:none"
             d="m 1.6890046,7.631036 c 0,0 0.099986,-2.579673 0.9604171,-3.731431 C 3.5098524,2.7478473 5.593189,2.0990822 5.593189,2.0990822 c 0,0 -1.3850826,0.9962887 -2.2455136,2.1480464 C 2.4872446,5.3988866 1.6890046,7.631036 1.6890046,7.631036 Z"
             id="path3497"
             sodipodi:nodetypes="cscsc"
             inkscape:connector-curvature="0" />
          <path
             style="color:#000000;display:inline;overflow:visible;visibility:visible;opacity:1;fill:#000000;fill-opacity:0.219608;fill-rule:evenodd;stroke:none;stroke-width:2;stroke-linecap:butt;stroke-linejoin:miter;stroke-miterlimit:4;stroke-dasharray:none;stroke-dashoffset:0;stroke-opacity:1;marker:none;marker-start:none;marker-mid:none;marker-end:none"
             d="m 14.443078,6.1941895 c 0,0 0.540824,3.7983408 -1.056492,5.9364785 -1.597315,2.138139 -5.3327695,2.616076 -5.3327695,2.616076 0,0 2.7292715,-1.081647 4.3265865,-3.219785 1.597316,-2.1381387 2.062675,-5.3327695 2.062675,-5.3327695 z"
             id="path3499"
             sodipodi:nodetypes="cscsc" />
          <path
             style="color:#000000;display:inline;overflow:visible;visibility:visible;opacity:1;fill:#000000;fill-opacity:0.172549;fill-rule:evenodd;stroke:none;stroke-width:2;stroke-linecap:butt;stroke-linejoin:miter;stroke-miterlimit:4;stroke-dasharray:none;stroke-dashoffset:0;stroke-opacity:1;marker:none;marker-start:none;marker-mid:none;marker-end:none"
             d="m 14.163585,8.273673 c 0,0 -0.09999,2.579673 -0.960417,3.731431 -0.86043,1.151757 -2.943767,1.800522 -2.943767,1.800522 0,0 1.541332,-0.973967 2.401763,-2.125724 0.860431,-1.151759 1.502421,-3.406229 1.502421,-3.406229 z"
             id="path3501"
             sodipodi:nodetypes="cscsc" />
          <path
             style="color:#000000;display:inline;overflow:visible;visibility:visible;fill:#ffffff;fill-opacity:0.435294;fill-rule:evenodd;stroke:none;stroke-width:2;marker:none"
             d="m 2.2247189,5.6221072 c 0,0 -0.1009069,-0.4814587 0.7595242,-1.6332167 0.8604307,-1.1517577 1.3143031,-1.0415942 1.3143031,-1.0415942 0,0 -0.3136541,0.036467 -1.1740851,1.188225 -0.8604308,1.151758 -0.8997422,1.4865859 -0.8997422,1.4865859 z"
             id="path3497-1"
             sodipodi:nodetypes="cscsc"
             inkscape:connector-curvature="0" />
        </g>
      </g>
      <g
         id="g3269"
         transform="translate(-2.8703962)">
        <path
           style="fill:#ffffff;fill-opacity:1;stroke:none;stroke-width:1px;stroke-linecap:butt;stroke-linejoin:miter;stroke-opacity:1"
           d="m 122.2726,137.78321 -30.848213,-31.40067 4.623323,-4.70425 30.9382,31.0254 z"
           id="path2360-3"
           sodipodi:nodetypes="ccccc" />
        <path
           style="fill:#ffffff;fill-opacity:1;stroke:none;stroke-width:1px;stroke-linecap:butt;stroke-linejoin:miter;stroke-opacity:1"
           d="m 91.152689,132.7982 31.400671,-30.84821 4.70425,4.62332 -31.025401,30.9382 z"
           id="path2360-3-5"
           sodipodi:nodetypes="ccccc" />
      </g>
      <g
         id="g3273"
         transform="translate(-2.8703962)">
        <path
           style="fill:#ffffff;fill-opacity:1;stroke:none;stroke-width:1px;stroke-linecap:butt;stroke-linejoin:miter;stroke-opacity:1"
           d="m 168.10128,137.78321 -30.84821,-31.40067 4.62332,-4.70425 30.9382,31.0254 z"
           id="path2360-3-6"
           sodipodi:nodetypes="ccccc" />
        <path
           style="fill:#ffffff;fill-opacity:1;stroke:none;stroke-width:1px;stroke-linecap:butt;stroke-linejoin:miter;stroke-opacity:1"
           d="m 136.98137,132.7982 31.40067,-30.84821 4.70425,4.62332 -31.0254,30.9382 z"
           id="path2360-3-5-2"
           sodipodi:nodetypes="ccccc" />
      </g>
    </g>
    <path
       style="fill:#000000;stroke:none;stroke-width:1px;stroke-linecap:butt;stroke-linejoin:miter;stroke-opacity:1;fill-opacity:0.12846367"
       d="M 20.654297,80.125558 44.56543,85.07673 28.918806,66.139788 l 1.350446,5.03976 9.979074,11.183036 -16.037947,-3.814174 z"
       id="path3724" />
    <path
       style="fill:#ffffff;fill-opacity:0.262469;stroke:none;stroke-width:1px;stroke-linecap:butt;stroke-linejoin:miter;stroke-opacity:1"
       d="m 71.332864,24.401494 -15.48986,9.823775 6.564988,-0.50437 7.330933,-4.383021 z"
       id="path3326-9" />
    <path
       style="fill:#000000;fill-opacity:0.128464;stroke:none;stroke-width:1px;stroke-linecap:butt;stroke-linejoin:miter;stroke-opacity:1"
       d="M 58.477381,35.798412 77.985933,50.484213 71.921865,26.679766 70.991388,31.813683 75.240826,46.18673 62.366422,35.89045 Z"
       id="path3724-1" />
    <path
       style="fill:#ffffff;stroke:none;stroke-width:1px;stroke-linecap:butt;stroke-linejoin:miter;stroke-opacity:1;fill-opacity:0.25"
       d="m 138.84138,11.640625 -18.25893,0.231585 9.1204,24.289899 -5.04604,-21.685965 11.32394,-0.08719 z"
       id="path5008" />
    <path
       style="fill:#000000;stroke:none;stroke-width:1px;stroke-linecap:butt;stroke-linejoin:miter;stroke-opacity:1;fill-opacity:0.2"
       d="m 130.4827,35.253209 5.20926,-20.154855 3.5233,-2.464425 z"
       id="path5726" />
    <path
       style="fill:#ffffff;fill-opacity:0.25;stroke:none;stroke-width:1px;stroke-linecap:butt;stroke-linejoin:miter;stroke-opacity:1"
       d="m 201.03207,36.075449 -15.61962,-9.458825 -5.10369,25.438815 7.18481,-21.074205 9.65724,5.914134 z"
       id="path5008-0" />
    <path
       style="fill:#000000;fill-opacity:0.2;stroke:none;stroke-width:1px;stroke-linecap:butt;stroke-linejoin:miter;stroke-opacity:1"
       d="m 181.45129,51.696402 15.07928,-14.351647 4.29357,-0.228536 z"
       id="path5726-9" />
    <path
       style="fill:#000000;stroke:none;stroke-width:1px;stroke-linecap:butt;stroke-linejoin:miter;stroke-opacity:1;fill-opacity:0.2"
       d="m 212.15275,85.941391 22.42016,-6.109746 -5.99975,-10.763451 0.65847,-4.333594 10.04086,16.51116 z"
       id="path6529" />
    <path
       style="fill:#ffffff;stroke:none;stroke-width:1px;stroke-linecap:butt;stroke-linejoin:miter;stroke-opacity:1;fill-opacity:0.25"
       d="M 228.15292,64.693661 211.29797,86.209713 227.21774,69.478568 Z"
       id="path6663" />
    <path
       style="fill:#000000;stroke:none;stroke-width:1px;stroke-linecap:butt;stroke-linejoin:miter;stroke-opacity:1;fill-opacity:0.05"
       d="m -15.537014,159.53505 c 12.9904857,-4.72743 37.233127,-0.62717 51.863047,9.58264 14.62992,10.20981 8.815888,38.68356 27.680547,46.71561 18.864659,8.03205 52.33981,-1.18657 66.89696,-15.72247 14.55715,-14.5359 -5.19464,-42.01497 12.59534,-53.24215 17.78998,-11.22718 56.341,-4.70764 69.89782,15.08521 13.55682,19.79285 -21.86122,46.2747 -11.3366,71.54327 10.52462,25.26857 66.94017,33.37878 74.48297,53.66238 7.5428,20.2836 33.88855,5.31851 -8.83686,37.00275 -42.72541,31.68424 -229.845802,10.69584 -280.597493,-16.91019 -50.751691,-27.60603 -34.225799,-30.0482 -38.85536,-52.77652 -4.629561,-22.72832 9.278561,-56.15152 16.98319,-71.64783 7.704629,-15.49631 6.235953,-18.56527 19.226439,-23.2927 z"
       id="path6658"
       sodipodi:nodetypes="zzzzzzzzzzzzz" />
    <path
       style="fill:#000000;stroke:none;stroke-width:1px;stroke-linecap:butt;stroke-linejoin:miter;stroke-opacity:1;fill-opacity:0.05"
       d="m -25.557649,213.59399 c 3.247952,-16.76086 8.768623,-32.58793 19.2540603,-37.6341 10.4854371,-5.04617 14.885675,-3.33418 26.9919867,5.49468 12.106312,8.82886 12.68262,44.40093 30.517655,54.37856 17.835035,9.97763 44.52096,3.37768 60.214567,-2.36557 15.69361,-5.74325 23.18183,-12.79462 31.54753,-24.60471 8.3657,-11.81009 2.74504,-36.63784 14.91751,-44.3895 12.17247,-7.75166 30.86852,-9.19049 39.50643,4.46283 8.63791,13.65332 -19.23718,38.70341 -18.5359,54.09248 0.70128,15.38907 3.64221,19.5662 14.41243,32.16902 10.77022,12.60282 44.22421,24.33005 53.79654,35.06926 9.57233,10.73921 15.77687,6.19452 9.86872,19.77295 -5.90815,13.57843 -31.34223,16.45252 -64.01842,18.89893 -32.67619,2.44641 -93.006662,-7.63212 -128.62872,-17.81183 -35.622058,-10.17971 -69.6371265,-16.92854 -84.432575,-37.61438 -14.795448,-20.68584 -8.659766,-43.15776 -5.411814,-59.91862 z"
       id="path6712"
       sodipodi:nodetypes="zzzzzzzzzzzzzzzz" />
    <path
       style="fill:#ffffff;stroke:none;stroke-width:1px;stroke-linecap:butt;stroke-linejoin:miter;stroke-opacity:1;fill-opacity:0.06"
       d="m -16.959514,62.53081 c 12.6971533,1.967689 40.495913,12.535249 54.538373,2.586543 14.04246,-9.948706 -2.859068,-34.986084 13.942867,-46.616961 16.801935,-11.6308771 53.787434,13.954498 73.774674,5.111924 19.98724,-8.842574 40.50471,-23.43669504 35.4461,-44.87287 -5.05861,-21.436175 -33.53066,-28.647896 -67.865681,-31.845454 -34.335023,-3.197558 -105.743228,6.04473 -127.734974,33.027253 -21.991746,26.9825225 -13.604102,63.440577 -3.837396,76.824864 9.766706,13.384287 9.038884,3.817012 21.736037,5.784701 z"
       id="path7062"
       sodipodi:nodetypes="zzzzzzzzz" />
    <path
       style="fill:#ffffff;stroke:none;stroke-width:1px;stroke-linecap:butt;stroke-linejoin:miter;stroke-opacity:1;fill-opacity:0.06"
       d="m 25.119653,-35.854497 c 20.653083,-9.406734 47.565338,-10.5038 67.528303,-8.333758 19.962964,2.170042 43.698684,3.960624 49.452094,17.456699 5.75341,13.496075 2.17755,22.0781179 -14.68864,32.4116911 C 110.54522,16.013708 62.173621,-11.117388 44.403307,1.8664147 26.632993,14.850218 44.458807,39.766787 31.681698,49.138397 18.904589,58.510007 -3.1881731,55.925139 -14.396647,47.191091 -25.605121,38.457043 -30.40747,26.88374 -25.555676,9.6773403 -20.703882,-7.5290597 4.4665698,-26.447763 25.119653,-35.854497 Z"
       id="path7116"
       sodipodi:nodetypes="zzzzzzzzz" />
    <path
       style="fill:#000000;stroke:none;stroke-width:1px;stroke-linecap:butt;stroke-linejoin:miter;stroke-opacity:1;fill-opacity:0.05"
       d="m 246.42987,-76.394759 c -17.59433,-3.622001 -27.37034,-1.227908 -38.80801,6.585721 -11.43767,7.813629 -19.25959,23.145693 -22.50154,37.517697 -3.24195,14.372004 -6.17002,33.989763 4.30301,44.442766 10.47303,10.453003 33.93509,-4.9204702 43.93375,4.168852 9.99866,9.089322 0.0636,23.766762 6.97044,36.280655 6.90684,12.513893 20.2093,30.613241 35.65326,33.344899 15.44396,2.731658 30.83348,-4.343973 41.67866,-17.71121 10.84518,-13.367237 13.70912,-38.004839 11.19454,-56.903945 -2.51458,-18.8991063 -11.14026,-35.033623 -24.9776,-50.566816 -13.83734,-15.533193 -39.85218,-33.536618 -57.44651,-37.158619 z"
       id="path7600"
       sodipodi:nodetypes="zzzzzzzzzzz" />
    <path
       style="fill:#000000;stroke:none;stroke-width:1px;stroke-linecap:butt;stroke-linejoin:miter;stroke-opacity:1;fill-opacity:0.05"
       d="m 205.82647,-37.353942 c -5.92527,10.691936 -11.99664,22.552074 -5.43943,33.4968165 6.55721,10.9447427 31.58447,4.41143666 40.31337,13.8205442 8.7289,9.4091073 0.80519,22.7942933 8.68495,33.2758453 7.87976,10.481552 21.82804,29.541828 38.05828,22.649514 16.23024,-6.892314 20.94048,-34.582767 14.07111,-59.8791595 -6.86937,-25.2963925 -43.54645,-68.3261505 -66.05253,-69.3394755 -22.50608,-1.013325 -23.71048,15.283979 -29.63575,25.975915 z"
       id="path7466"
       sodipodi:nodetypes="zzzzzzzz" />
  </g>
</svg>
