<?xml version="1.0" encoding="UTF-8" standalone="no"?>
<!-- Created with Inkscape (http://www.inkscape.org/) -->

<svg
   width="256"
   height="256"
   id="svg2"
   sodipodi:version="0.32"
   inkscape:version="1.1.2 (0a00cf5339, 2022-02-04)"
   sodipodi:docname="dotsweep_steam_achievement_seeitthrough.svg"
   inkscape:export-filename="g:\newcode\java\dc\rev2\ball0700.png"
   inkscape:export-xdpi="90.000000"
   inkscape:export-ydpi="90.000000"
   version="1.1"
   xmlns:inkscape="http://www.inkscape.org/namespaces/inkscape"
   xmlns:sodipodi="http://sodipodi.sourceforge.net/DTD/sodipodi-0.dtd"
   xmlns="http://www.w3.org/2000/svg"
   xmlns:svg="http://www.w3.org/2000/svg"
   xmlns:rdf="http://www.w3.org/1999/02/22-rdf-syntax-ns#"
   xmlns:cc="http://creativecommons.org/ns#"
   xmlns:dc="http://purl.org/dc/elements/1.1/">
  <defs
     id="defs4" />
  <sodipodi:namedview
     id="base"
     pagecolor="#ffffff"
     bordercolor="#666666"
     borderopacity="1.0"
     inkscape:pageopacity="0.0"
     inkscape:pageshadow="2"
     inkscape:zoom="1.4"
     inkscape:cx="127.85714"
     inkscape:cy="123.21429"
     inkscape:document-units="px"
     inkscape:current-layer="layer1"
     borderlayer="true"
     inkscape:showpageshadow="false"
     inkscape:window-width="1680"
     inkscape:window-height="986"
     inkscape:window-x="0"
     inkscape:window-y="0"
     showgrid="false"
     inkscape:window-maximized="1"
     inkscape:pagecheckerboard="0"
     inkscape:snap-global="false" />
  <metadata
     id="metadata7">
    <rdf:RDF>
      <cc:Work
         rdf:about="">
        <dc:format>image/svg+xml</dc:format>
        <dc:type
           rdf:resource="http://purl.org/dc/dcmitype/StillImage" />
      </cc:Work>
    </rdf:RDF>
  </metadata>
  <g
     inkscape:label="Layer 1"
     inkscape:groupmode="layer"
     id="layer1">
    <rect
       style="fill:#2f97da;fill-opacity:1;stroke:none"
       id="rect4477"
       width="466.67209"
       height="414.73792"
       x="-103.38654"
       y="-318.23059"
       transform="matrix(-0.00228683,0.99999739,-0.99999912,-0.00132987,0,0)" />
    <g
       id="g8464">
      <path
         style="fill:#000000;stroke:none;stroke-width:1px;stroke-linecap:butt;stroke-linejoin:miter;stroke-opacity:1;fill-opacity:0.05"
         d="m -60.48683,290.29653 c -17.857234,-15.00435 -29.386505,-25.83229 -27.212957,-49.86839 2.173548,-24.0361 31.203404,-63.67407 55.323609,-68.42797 24.1202047,-4.7539 28.712631,27.29905 52.176746,28.61968 23.464115,1.32063 53.327883,-29.81745 75.40039,-30.92803 22.072512,-1.11058 26.933742,14.47182 48.990422,14.55053 22.05668,0.0787 53.03028,-21.26152 78.03626,-22.57256 25.00598,-1.31104 42.4122,18.89055 67.93079,12.13761 25.51859,-6.75294 26.11347,-72.42901 68.69037,-57.18016 42.5769,15.24885 91.26333,105.49146 34.14592,178.74373 C 335.87731,368.62324 93.985415,327.18732 18.259691,316.9472 -57.466033,306.70708 -42.629596,305.30088 -60.48683,290.29653 Z"
         id="path8199"
         sodipodi:nodetypes="zzzzzzzzzzzz" />
      <path
         style="fill:#000000;stroke:none;stroke-width:1px;stroke-linecap:butt;stroke-linejoin:miter;stroke-opacity:1;fill-opacity:0.05"
         d="m -54.658723,227.87818 c 0.824424,-24.92675 23.819326,-28.04671 40.287725,-30.10333 16.4683994,-2.05662 25.22639,19.95939 45.523945,18.88511 20.297555,-1.07428 41.87642,-32.80415 63.809284,-34.77529 21.932859,-1.97114 33.872699,18.85017 56.444249,18.68783 22.57155,-0.16234 47.46452,-24.73625 71.7741,-24.91447 24.30958,-0.17822 44.19559,24.23945 66.35045,21.94714 22.15486,-2.29231 29.08741,-45.27972 55.14604,-31.98948 26.05863,13.29024 60.02854,54.6907 11.36816,111.17992 -48.66038,56.48922 -266.655431,39.20642 -335.220699,15.67906 -68.565268,-23.52736 -76.307678,-39.66974 -75.483254,-64.59649 z"
         id="path8253"
         sodipodi:nodetypes="zzzzzzzzzzz" />
    </g>
    <g
       id="g9010">
      <path
         style="fill:#ffffff;stroke:none;stroke-width:1px;stroke-linecap:butt;stroke-linejoin:miter;stroke-opacity:1;fill-opacity:0.06"
         d="M -14.341404,85.7584 C 6.7331576,83.123321 18.055371,50.770351 38.318716,47.792842 58.582061,44.815333 75.99643,73.864621 93.103708,66.733202 110.21099,59.601783 124.71932,35.475116 116.16557,18.748984 107.61182,2.0228519 75.530681,8.6775953 57.618154,8.2568133 39.705627,7.8360313 30.14093,15.871225 10.000905,14.49924 -10.13912,13.127255 -40.563281,-17.377788 -60.516424,-4.7429819 -80.469567,7.8918245 -83.153799,43.735931 -72.490283,62.81097 c 10.663516,19.075039 37.074317,25.582509 58.148879,22.94743 z"
         id="path8499"
         sodipodi:nodetypes="zzzzzzzzz" />
      <path
         style="fill:#ffffff;stroke:none;stroke-width:1px;stroke-linecap:butt;stroke-linejoin:miter;stroke-opacity:1;fill-opacity:0.06"
         d="M -43.655557,6.6508286 C -29.820184,3.4590048 -6.8024217,24.033297 13.840274,25.581324 34.48297,27.129351 61.022633,13.190308 76.611784,14.911588 c 15.589151,1.72128 25.884156,2.572928 28.165896,11.522052 2.28174,8.949124 -3.06682,14.4196 -15.769825,19.37441 C 76.304849,50.76286 49.943174,33.456757 32.76485,37.663695 15.586526,41.870633 8.0391708,62.815386 -7.2289041,66.466854 -22.496979,70.118322 -41.422073,68.650271 -51.598671,59.549676 -61.775269,50.449081 -64.040449,33.760238 -61.333227,23.845124 -58.626005,13.93001 -57.49093,9.8426524 -43.655557,6.6508286 Z"
         id="path8553"
         sodipodi:nodetypes="zzzzzzzzzz" />
    </g>
    <g
       id="g9006">
      <path
         style="fill:#ffffff;stroke:none;stroke-width:1px;stroke-linecap:butt;stroke-linejoin:miter;stroke-opacity:1;fill-opacity:0.06"
         d="m 269.06755,24.40347 c -13.72932,-6.58896 -29.78791,-9.729206 -44.37372,-5.325003 -14.58581,4.404203 -22.27489,26.99191 -35.55855,30.312468 -13.28366,3.320558 -27.37201,-14.273511 -34.60562,-7.593901 -7.23361,6.67961 -3.80461,14.407397 3.21592,23.426859 7.02053,9.019462 26.46643,17.999343 41.65301,16.849028 15.18658,-1.150315 24.06285,-24.073292 39.94443,-23.705044 15.88158,0.368248 26.88043,29.111411 40.82239,26.859798 13.94196,-2.251613 23.10628,-14.415676 22.2352,-28.146164 C 301.52953,43.351023 282.79687,30.99243 269.06755,24.40347 Z"
         id="path8687"
         sodipodi:nodetypes="zzzzzzzzzz" />
      <path
         style="fill:#ffffff;stroke:none;stroke-width:1px;stroke-linecap:butt;stroke-linejoin:miter;stroke-opacity:1;fill-opacity:0.06"
         d="m 166.46801,51.941965 c 5.85361,-1.36506 14.14504,9.171885 26.80456,6.867853 12.65952,-2.304032 23.00161,-26.668246 40.57577,-28.412513 17.57416,-1.744267 48.10633,10.797662 51.68351,22.649514 3.57718,11.851852 0.54722,12.444282 -9.65564,15.014182 -10.20286,2.5699 -25.00153,-22.996147 -39.60903,-21.937278 -14.6075,1.058869 -22.02548,23.05972 -33.89732,25.796376 -11.87184,2.736656 -22.92391,-3.022446 -29.90999,-5.981997 -6.98608,-2.959551 -12.15775,-4.634105 -12.36253,-8.531054 -0.20478,-3.896949 0.51706,-4.100023 6.37067,-5.465083 z"
         id="path8741"
         sodipodi:nodetypes="zzzzzzzzzz" />
    </g>
    <g
       id="g2109"
       transform="matrix(0.5535289,0.09456609,-0.09456609,0.5535289,95.666265,24.317637)">
      <g
         id="g1423"
         transform="matrix(8.6878948,0,0,8.6878948,14.40033,102.49076)">
        <circle
           style="opacity:1;fill:none;fill-opacity:1;fill-rule:evenodd;stroke:#ffffff;stroke-width:2;stroke-linecap:butt;stroke-linejoin:round;stroke-miterlimit:4;stroke-dasharray:none;stroke-opacity:1"
           id="path1306"
           transform="matrix(0.379217,0,0,0.379217,0.434427,0.396893)"
           cx="19.950512"
           cy="20.049488"
           r="19.950512" />
        <path
           style="color:#000000;display:inline;overflow:visible;visibility:visible;fill:#ffffff;fill-opacity:0.351598;fill-rule:evenodd;stroke:none;stroke-width:2;marker:none"
           d="m 1.4095118,9.7105195 c 0,0 -0.54082329,-3.7983406 1.0564921,-5.9364793 1.5973152,-2.1381388 5.3327692,-2.6160756 5.3327692,-2.6160756 0,0 -2.4837351,1.1709323 -4.0810507,3.3090709 -1.5973153,2.1381389 -2.3082106,5.243484 -2.3082106,5.243484 z"
           id="path2767"
           sodipodi:nodetypes="cscsc"
           inkscape:connector-curvature="0" />
        <path
           style="color:#000000;display:inline;overflow:visible;visibility:visible;fill:#ffffff;fill-opacity:0.39726;fill-rule:evenodd;stroke:none;stroke-width:2;marker:none"
           d="m 1.6890046,7.631036 c 0,0 0.099986,-2.579673 0.9604171,-3.731431 C 3.5098524,2.7478473 5.593189,2.0990822 5.593189,2.0990822 c 0,0 -1.3850826,0.9962887 -2.2455136,2.1480464 C 2.4872446,5.3988866 1.6890046,7.631036 1.6890046,7.631036 Z"
           id="path3497"
           sodipodi:nodetypes="cscsc"
           inkscape:connector-curvature="0" />
        <path
           style="color:#000000;display:inline;overflow:visible;visibility:visible;opacity:1;fill:#000000;fill-opacity:0.219608;fill-rule:evenodd;stroke:none;stroke-width:2;stroke-linecap:butt;stroke-linejoin:miter;stroke-miterlimit:4;stroke-dasharray:none;stroke-dashoffset:0;stroke-opacity:1;marker:none;marker-start:none;marker-mid:none;marker-end:none"
           d="m 14.443078,6.1941895 c 0,0 0.540824,3.7983408 -1.056492,5.9364785 -1.597315,2.138139 -5.3327695,2.616076 -5.3327695,2.616076 0,0 2.7292715,-1.081647 4.3265865,-3.219785 1.597316,-2.1381387 2.062675,-5.3327695 2.062675,-5.3327695 z"
           id="path3499"
           sodipodi:nodetypes="cscsc" />
        <path
           style="color:#000000;display:inline;overflow:visible;visibility:visible;opacity:1;fill:#000000;fill-opacity:0.172549;fill-rule:evenodd;stroke:none;stroke-width:2;stroke-linecap:butt;stroke-linejoin:miter;stroke-miterlimit:4;stroke-dasharray:none;stroke-dashoffset:0;stroke-opacity:1;marker:none;marker-start:none;marker-mid:none;marker-end:none"
           d="m 14.163585,8.273673 c 0,0 -0.09999,2.579673 -0.960417,3.731431 -0.86043,1.151757 -2.943767,1.800522 -2.943767,1.800522 0,0 1.541332,-0.973967 2.401763,-2.125724 0.860431,-1.151759 1.502421,-3.406229 1.502421,-3.406229 z"
           id="path3501"
           sodipodi:nodetypes="cscsc" />
        <path
           style="color:#000000;display:inline;overflow:visible;visibility:visible;fill:#ffffff;fill-opacity:0.435294;fill-rule:evenodd;stroke:none;stroke-width:2;marker:none"
           d="m 2.2247189,5.6221072 c 0,0 -0.1009069,-0.4814587 0.7595242,-1.6332167 0.8604307,-1.1517577 1.3143031,-1.0415942 1.3143031,-1.0415942 0,0 -0.3136541,0.036467 -1.1740851,1.188225 -0.8604308,1.151758 -0.8997422,1.4865859 -0.8997422,1.4865859 z"
           id="path3497-1"
           sodipodi:nodetypes="cscsc"
           inkscape:connector-curvature="0" />
      </g>
    </g>
    <g
       id="g2538"
       transform="translate(534.67453)">
      <path
         style="fill:#000000;fill-opacity:0.0508005;stroke:none;stroke-width:1px;stroke-linecap:butt;stroke-linejoin:miter;stroke-opacity:1"
         d="m 107.01059,262.01693 c 0,0 27.79868,-16.57952 35.43351,-27.67049 7.63484,-11.09097 10.51932,-34.25212 10.51932,-34.25212 L 270.84912,59.774593 122.8894,40.60537 190.40981,-7.0217439 159.28448,-7.964816 -36.981053,59.837727 l 1.998602,13.230631 131.400722,16.02828 -28.48354,14.333512 c 0,0 -21.274169,0.27631 -30.870814,2.2689 -9.596645,1.99259 -15.879279,2.78937 -26.295533,9.18607 -10.41625441,6.3967 -32.802336,31.514 -32.802336,31.514 l -40.167374,11.58321 V -21.05734 H 301.11227 v 287.44759 z"
         id="path1908"
         sodipodi:nodetypes="czccccccccczzcccccc" />
      <path
         style="fill:#000000;fill-opacity:0.0508005;stroke:none;stroke-width:1px;stroke-linecap:butt;stroke-linejoin:miter;stroke-opacity:1"
         d="m 136.04353,258.09989 c 0,0 15.8943,-7.58811 21.1342,-12.80134 5.2399,-5.21323 7.90966,-9.52961 10.26089,-16.74665 2.35123,-7.21704 2.07449,-25.81892 2.07449,-25.81892 L 296.52483,54.574497 285.08649,49.13923 161.1077,34.245257 l 51.80106,-44.898159 -64.14621,-3.384486 -201.714559,67.968749 3.66211,25.043248 115.119977,11.809431 -4.870257,5.877511 c 0,0 -21.503983,0.123553 -32.096819,2.219587 -10.592836,2.096032 -19.1185019,4.454422 -30.9430801,10.311102 -11.8245779,5.85668 -38.4751669,26.21513 -38.4751669,26.21513 l -20.820313,2.97293 1.363003,-161.376952 362.456745,-0.696149 3.0692,151.549941 0.004,136.88337 z"
         id="path2116"
         sodipodi:nodetypes="czzcccccccccczzccccccc" />
      <path
         style="fill:#000000;fill-opacity:0.0508005;stroke:none;stroke-width:1px;stroke-linecap:butt;stroke-linejoin:miter;stroke-opacity:1"
         d="m 159.39891,261.69856 c 0,0 19.2359,-10.79485 23.93588,-17.65597 4.69998,-6.86112 4.77527,-12.86987 5.29739,-19.44741 0.52212,-6.57754 -2.08542,-19.32114 -2.08542,-19.32114 L 315.21692,59.671999 309.13035,40.15159 195.28695,27.137985 l 48.77735,-45.585107 -96.55244,-8.732295 -212.530565,75.611496 1.819064,37.391428 86.656093,5.985943 -23.56299153,5.214518 -57.75231447,21.872172 -25.044681,1.04961 11.186651,-148.492424 260.191224,-7.347281 145.38305,9.308397 -7.2585,209.170628 -35.62564,102.96059 z"
         id="path2364"
         sodipodi:nodetypes="czzcccccccccccccccccc" />
    </g>
    <rect
       style="fill:#ffffff;fill-opacity:0.890798;stroke-width:1.91688"
       id="rect1432-3"
       width="7.0647039"
       height="20.840876"
       x="146.5981"
       y="110.33491" />
    <rect
       style="fill:#ffffff;fill-opacity:0.890798;stroke-width:1.91688"
       id="rect1432-3-6"
       width="7.0647039"
       height="20.840876"
       x="127.04333"
       y="110.33491" />
    <path
       style="fill:#ffffff;fill-opacity:1;stroke:none;stroke-width:1px;stroke-linecap:butt;stroke-linejoin:miter;stroke-opacity:1"
       d="m 64.029083,182.0353 c 0,0 -18.530071,-28.89441 -19.337015,-48.21249 -0.806944,-19.31808 4.40801,-45.923615 18.806141,-61.241316 14.398131,-15.317701 38.775141,-21.965642 57.907431,-23.852555 19.13228,-1.886914 36.00943,-0.215346 52.76046,10.654518 16.75103,10.869863 32.99403,38.085418 36.61582,55.549833 3.62178,17.46441 -1.4472,27.592 -7.00146,39.87403 -5.55427,12.28204 -25.26028,31.52038 -25.26028,31.52038 l 6.6626,-0.0154 c 0,0 18.66326,-14.49324 25.03378,-27.15071 6.37053,-12.65748 12.75453,-28.01458 8.97457,-47.24617 C 215.41116,92.683837 199.26234,65.491663 181.34059,53.619186 163.41883,41.74671 144.14755,39.384281 122.58453,41.251392 101.02152,43.118503 72.610252,50.434069 56.608121,67.250391 40.60599,84.066712 35.182561,112.81715 36.354245,133.10271 c 1.171683,20.28556 21.317433,48.54525 21.317433,48.54525 z"
       id="path1789"
       sodipodi:nodetypes="czzzzzzcczzzzzzcc" />
    <path
       style="fill:#ffffff;fill-opacity:1;stroke:none;stroke-width:1px;stroke-linecap:butt;stroke-linejoin:miter;stroke-opacity:1"
       d="m 34.638672,182.06209 c 0,0 -17.515149,-32.48974 -19.195034,-52.20982 C 13.763753,110.13219 14.622073,86.213099 26.890346,67.776372 39.158619,49.339645 66.733794,36.729416 85.277623,29.61789 c 18.543827,-7.111526 32.034837,-7.611312 48.832307,-7.557198 16.79747,0.05411 35.37246,0.872138 50.71568,8.183593 15.34322,7.311455 28.98091,19.573123 37.73019,33.724889 8.74928,14.151766 14.53129,29.270655 16.1942,43.803016 1.66291,14.53236 0.85377,28.30414 -4.72377,42.20006 C 228.44869,163.86817 200,188.36371 200,188.36371 c 0,0 32.92544,-22.52782 39.61496,-37.21261 6.68952,-14.68479 6.6993,-30.86312 4.87583,-46.12445 C 242.66732,89.765326 236.70595,75.090416 227.67718,60.846964 218.64841,46.603512 204.88378,34.780548 188.90625,27.050926 172.92872,19.321304 152.99401,17.305197 134.77679,16.96443 116.55957,16.623664 100.32931,17.429861 81.099331,24.902488 61.869348,32.375116 36.178285,44.668256 23.501674,63.839431 10.825063,83.010606 7.8505957,110.30006 10.446429,130.95718 c 2.595833,20.65712 24.192243,51.10491 24.192243,51.10491 z"
       id="path2326"
       sodipodi:nodetypes="czzzzzzzzczzzzzzzzc" />
    <path
       style="fill:#ffffff;fill-opacity:1;stroke:none;stroke-width:1px;stroke-linecap:butt;stroke-linejoin:miter;stroke-opacity:1"
       d="m -7.092634,223.4361 c 0,0 50.386473,-17.67003 73.392858,-27.9813 23.006385,-10.31127 64.556366,-33.48214 64.556366,-33.48214 0,0 54.02459,43.07665 76.55273,55.22879 22.52814,12.15214 55.29855,21.09236 55.29855,21.09236 l 0.31668,10.18136 c 0,0 -34.35729,-9.85998 -57.03543,-22.59766 -22.67814,-12.73768 -75.61245,-57.03962 -75.61245,-57.03962 0,0 -37.520895,22.5015 -60.315286,33.38588 -22.794391,10.88438 -76.5583148,31.06167 -76.5583148,31.06167 z"
       id="path2707"
       sodipodi:nodetypes="czczcczczcc" />
    <path
       style="fill:#ffffff;fill-opacity:1;stroke:none;stroke-width:1px;stroke-linecap:butt;stroke-linejoin:miter;stroke-opacity:1"
       d="m 48.405413,211.37556 42.508371,-10.72405 -26.848493,29.25781 39.492189,-25.87612 7.14285,35.81195 7.70787,-35.9389 15.50502,38.27009 5.0293,-40.48549 24.50474,30.7659 -10.64453,-32.39397 42.32283,18.35658 17.50279,7.80832 c 0,0 -41.3698,-28.5082 -55.10742,-38.8365 -13.73762,-10.3283 -27.86552,-22.32422 -27.86552,-22.32422 l -74.169919,40.51758 z"
       id="path3050"
       sodipodi:nodetypes="cccccccccccczccc" />
    <path
       style="fill:#ffffff;fill-opacity:1;stroke:none;stroke-width:1px;stroke-linecap:butt;stroke-linejoin:miter;stroke-opacity:1"
       d="m 81.747384,158.36719 -67.469114,25.1966 -0.481401,-2.77792 65.956845,-25.12261 z"
       id="path3682" />
    <path
       style="fill:#ffffff;fill-opacity:1;stroke:none;stroke-width:1px;stroke-linecap:butt;stroke-linejoin:miter;stroke-opacity:1"
       d="m 77.031414,109.5993 -60.74661,-38.688495 1.92778,-2.057244 59.776818,37.525769 z"
       id="path3682-7"
       inkscape:transform-center-x="81.049678"
       inkscape:transform-center-y="-39.954358" />
    <path
       style="fill:#ffffff;fill-opacity:1;stroke:none;stroke-width:1px;stroke-linecap:butt;stroke-linejoin:miter;stroke-opacity:1"
       d="m 119.56716,75.088198 3.13192,-71.9523557 2.74551,0.6408844 -2.60985,70.5311253 z"
       id="path3682-7-5"
       inkscape:transform-center-x="5.680906"
       inkscape:transform-center-y="-90.068769" />
    <path
       style="fill:#ffffff;fill-opacity:1;stroke:none;stroke-width:1px;stroke-linecap:butt;stroke-linejoin:miter;stroke-opacity:1"
       d="m 170.72253,94.669683 63.87853,-33.263856 0.81773,2.698124 -62.38667,33.005366 z"
       id="path3682-7-5-3"
       inkscape:transform-center-x="-74.883879"
       inkscape:transform-center-y="-49.923217" />
    <path
       style="fill:#ffffff;fill-opacity:1;stroke:none;stroke-width:1px;stroke-linecap:butt;stroke-linejoin:miter;stroke-opacity:1"
       d="m 179.34215,148.76227 60.74661,38.68851 -1.92778,2.05723 -59.77682,-37.52576 z"
       id="path3682-7-5-3-5"
       inkscape:transform-center-x="-81.049679"
       inkscape:transform-center-y="39.954352" />
  </g>
</svg>
