<?xml version="1.0" encoding="UTF-8" standalone="no"?>
<!-- Created with Inkscape (http://www.inkscape.org/) -->

<svg
   width="256"
   height="256"
   id="svg2"
   sodipodi:version="0.32"
   inkscape:version="1.1.2 (0a00cf5339, 2022-02-04)"
   sodipodi:docname="dotsweep_steam_achievement_gettinggood.svg"
   inkscape:export-filename="g:\newcode\java\dc\rev2\ball0700.png"
   inkscape:export-xdpi="90.000000"
   inkscape:export-ydpi="90.000000"
   version="1.1"
   xmlns:inkscape="http://www.inkscape.org/namespaces/inkscape"
   xmlns:sodipodi="http://sodipodi.sourceforge.net/DTD/sodipodi-0.dtd"
   xmlns="http://www.w3.org/2000/svg"
   xmlns:svg="http://www.w3.org/2000/svg"
   xmlns:rdf="http://www.w3.org/1999/02/22-rdf-syntax-ns#"
   xmlns:cc="http://creativecommons.org/ns#"
   xmlns:dc="http://purl.org/dc/elements/1.1/">
  <defs
     id="defs4" />
  <sodipodi:namedview
     id="base"
     pagecolor="#ffffff"
     bordercolor="#666666"
     borderopacity="1.0"
     inkscape:pageopacity="0.0"
     inkscape:pageshadow="2"
     inkscape:zoom="5.6568542"
     inkscape:cx="19.622213"
     inkscape:cy="229.54454"
     inkscape:document-units="px"
     inkscape:current-layer="layer1"
     borderlayer="true"
     inkscape:showpageshadow="false"
     inkscape:window-width="1680"
     inkscape:window-height="986"
     inkscape:window-x="0"
     inkscape:window-y="0"
     showgrid="false"
     inkscape:window-maximized="1"
     inkscape:pagecheckerboard="0"
     inkscape:snap-global="false" />
  <metadata
     id="metadata7">
    <rdf:RDF>
      <cc:Work
         rdf:about="">
        <dc:format>image/svg+xml</dc:format>
        <dc:type
           rdf:resource="http://purl.org/dc/dcmitype/StillImage" />
      </cc:Work>
    </rdf:RDF>
  </metadata>
  <g
     inkscape:label="Layer 1"
     inkscape:groupmode="layer"
     id="layer1">
    <rect
       style="fill:#2f97da;fill-opacity:1;stroke:none"
       id="rect4477"
       width="466.67209"
       height="414.73792"
       x="-103.38654"
       y="-318.23059"
       transform="matrix(-0.00228683,0.99999739,-0.99999912,-0.00132987,0,0)" />
    <g
       id="g26913">
      <path
         style="fill:#ffffff;stroke:none;stroke-width:1px;stroke-linecap:butt;stroke-linejoin:miter;stroke-opacity:1;fill-opacity:0.06"
         d="m 178.47127,-9.4216454 c -2.45572,9.63365759 7.75302,20.9226284 3.03006,29.6708634 -7.36176,13.636039 -36.07174,6.821783 -41.25802,21.424507 -3.22285,9.074396 15.31564,17.662309 11.49739,26.502694 -4.63983,10.74259 -31.32453,0.329886 -33.0241,11.907567 -1.22751,8.361929 11.98557,14.057333 20.37351,15.092311 15.47275,1.909166 36.9978,-3.575889 43.22191,-17.869638 3.40384,-7.816969 -12.20585,-16.082622 -8.94794,-23.961529 8.13131,-19.664701 42.26649,-12.29268 58.04766,-26.567604 13.0649,-11.81791 34.64902,-29.9006026 26.68914,-45.616674 -10.34185,-20.419064 -47.52049,-16.718389 -68.29657,-7.113881 -6.06437,2.803477 -9.68275,10.05739 -11.33304,16.5313836 z"
         id="path26720"
         sodipodi:nodetypes="aaaaaaaaaaaa" />
      <path
         style="fill:#ffffff;stroke:none;stroke-width:1px;stroke-linecap:butt;stroke-linejoin:miter;stroke-opacity:1;fill-opacity:0.06"
         d="m 204.67151,-10.42292 c -8.8467,7.9072111 -7.70594,28.830363 -13.91564,35.580453 -6.2097,6.75009 -8.69577,5.09804 -15.10613,7.412192 -6.41036,2.314152 -18.60997,-2.261802 -23.39391,5.643734 -4.78394,7.905536 12.08233,21.456784 7.63179,30.434594 -4.45054,8.97781 -25.87272,4.555264 -26.42398,11.317161 -0.55126,6.761897 3.01134,5.73557 10.08663,6.427491 7.07529,0.691921 23.78862,-2.149456 28.59018,-11.167316 4.80156,-9.01786 -10.75928,-21.141301 -6.67539,-29.868356 4.08389,-8.727055 14.4474,-8.715861 24.18802,-12.455852 9.74062,-3.739991 23.67153,-2.304775 34.22839,-9.019754 10.55686,-6.714979 25.92568,-20.9025372 25.41786,-30.4601441 -0.50782,-9.5576069 -4.57038,-10.2226299 -12.75554,-12.3495099 -8.18516,-2.12688 -23.02558,0.598096 -31.87228,8.505307 z"
         id="path26774"
         sodipodi:nodetypes="zzzzzzzzzzzzzz" />
    </g>
    <g
       id="g26685">
      <path
         style="fill:#ffffff;stroke:none;stroke-width:1px;stroke-linecap:butt;stroke-linejoin:miter;stroke-opacity:1;fill-opacity:0.06"
         d="m 265.58984,232.49023 c -10.43772,-4.47922 -27.85259,-25.97114 -42.98437,-25.45117 -15.13178,0.51997 -16.63858,21.19973 -33.67188,23.19922 -17.0333,1.99949 -45.92635,-4.75639 -57.82421,-22.40039 -11.89786,-17.644 -17.6275,-52.03615 0.96093,-65.66601 18.58843,-13.62986 45.40472,29.32854 69.57813,20.82226 24.17341,-8.50628 23.85684,-61.87347 46.03125,-66.808593 22.17441,-4.935126 32.44539,9.064853 47.61523,27.867183 15.16984,18.80233 35.26062,63.38512 27.94141,85.32422 -7.31921,21.9391 -29.10002,26.21212 -40.14063,28.07422 -11.04061,1.8621 -7.06814,-0.48172 -17.50586,-4.96094 z"
         id="path26348"
         sodipodi:nodetypes="zzzzzzzzzzz" />
      <path
         style="fill:#ffffff;stroke:none;stroke-width:1px;stroke-linecap:butt;stroke-linejoin:miter;stroke-opacity:1;fill-opacity:0.06"
         d="m 290.19727,148.83398 c -8.715,-14.48345 -16.58294,-37.54918 -34.34571,-34.59375 -17.76277,2.95543 -12.73315,41.67561 -25.90039,53.3379 -13.16724,11.66229 -30.83136,14.71027 -43.73242,15.02734 -12.90106,0.31707 -23.22816,-13.92453 -29.95703,-8.67383 -6.72887,5.2507 -4.29003,11.86134 0.72656,20.00977 5.01659,8.14843 19.31523,19.21604 32.75195,18.03711 13.43672,-1.17893 19.17822,-26.10153 33.89844,-27.32422 14.72022,-1.22269 24.71863,19.64048 39.28906,22.11523 14.57043,2.47475 34.57607,6.06598 42.91407,-7.64062 8.338,-13.7066 -6.92953,-35.81148 -15.64453,-50.29493 z"
         id="path26402"
         sodipodi:nodetypes="zzzzzzzzzzz" />
    </g>
    <g
       id="g26313">
      <path
         style="fill:#000000;stroke:none;stroke-width:1px;stroke-linecap:butt;stroke-linejoin:miter;stroke-opacity:1;fill-opacity:0.05"
         d="m 107.05664,-9.9277344 c 7.35063,16.2831233 4.59711,44.0930864 -9.664062,54.0664064 -14.261169,9.97332 -33.62464,-16.75719 -48.75,-8.537109 -15.12536,8.220081 -31.393837,33.005958 -21.039062,49.511718 10.354775,16.505759 51.059195,-10.310733 63.039062,3.054688 11.979862,13.365421 4.855377,27.974001 -2.708984,44.496091 -7.564361,16.52209 -44.301946,21.30405 -46.138672,45 -1.836726,23.69595 25.331199,45.74073 46.871094,62.53711 21.539894,16.79638 77.009084,8.92339 79.068364,33.14649 2.05928,24.2231 -14.33512,24.24702 -50.73243,32.27343 C 80.604637,313.6475 -5.5730612,313.08928 -45.068359,284.02344 -84.563657,254.9576 -96.225516,211.61771 -100.08594,165.44141 -103.94636,119.26511 -79.474745,55.003133 -61.138672,23.382813 -42.802599,-8.2375073 -32.043056,-16.926244 -10.320313,-27.638672 11.40243,-38.3511 41.90592,-41.394243 62.382813,-37.0625 c 20.476893,4.331743 37.323196,10.851642 44.673827,27.1347656 z"
         id="path25976"
         sodipodi:nodetypes="zzzzzzzzzzzzzzzz" />
      <path
         style="fill:#000000;stroke:none;stroke-width:1px;stroke-linecap:butt;stroke-linejoin:miter;stroke-opacity:1;fill-opacity:0.05"
         d="M 76.789063,-11.962891 C 88.167176,-5.4939039 97.983696,-0.52604411 100.41406,8.1601563 102.84442,16.846357 104.43349,24.428087 93.160156,30.076172 81.886827,35.724257 58.52503,11.138514 43.296875,13.427734 28.06872,15.716954 18.821483,22.880874 10.898438,36.589844 2.9753927,50.298814 -1.5898592,77.59193 5.5019531,91.501953 12.593765,105.41198 26.695165,109.207 38.726563,110.96289 c 12.031398,1.75589 25.372581,-15.917601 33.460937,-8.18945 8.088356,7.72815 2.52204,21.23987 -6.314453,32.05664 -8.836493,10.81677 -37.551418,6.72083 -47.1875,19.6914 C 9.0494646,167.49205 5.9907154,181.03586 14,200.09961 c 8.009285,19.06375 40.467266,36.0666 61.193359,48.76758 20.726093,12.70098 60.479561,12.80506 61.539061,27.97656 1.0595,15.1715 -0.43337,7.04333 -19.96094,12.68555 -19.527569,5.64222 -70.373015,6.82251 -98.306636,-0.35157 -27.9336208,-7.17408 -45.631921,-10.59494 -65.613282,-35.77734 -19.981361,-25.1824 -31.988457,-79.62252 -31.501953,-113.86914 0.486504,-34.24662 14.271274,-57.813279 25.673828,-83.496094 11.402554,-25.682815 25.036245,-56.72877387 41.587891,-69.796875 16.551646,-13.068101 27.756285,-13.716377 43.21875,-13.521484 15.462465,0.194893 33.580872,8.851325 44.958985,15.320312 z"
         id="path26030"
         sodipodi:nodetypes="zzzzzzzzzzzzzzzzzzzzz" />
    </g>
    <g
       id="g2109"
       transform="matrix(0.75897151,0.12966436,-0.12966436,0.75897151,73.835021,3.7429689)">
      <g
         id="g1423"
         transform="matrix(8.6878948,0,0,8.6878948,14.40033,102.49076)">
        <circle
           style="opacity:1;fill:none;fill-opacity:1;fill-rule:evenodd;stroke:#ffffff;stroke-width:2;stroke-linecap:butt;stroke-linejoin:round;stroke-miterlimit:4;stroke-dasharray:none;stroke-opacity:1"
           id="path1306"
           transform="matrix(0.379217,0,0,0.379217,0.434427,0.396893)"
           cx="19.950512"
           cy="20.049488"
           r="19.950512" />
        <path
           style="color:#000000;display:inline;overflow:visible;visibility:visible;fill:#ffffff;fill-opacity:0.351598;fill-rule:evenodd;stroke:none;stroke-width:2;marker:none"
           d="m 1.4095118,9.7105195 c 0,0 -0.54082329,-3.7983406 1.0564921,-5.9364793 1.5973152,-2.1381388 5.3327692,-2.6160756 5.3327692,-2.6160756 0,0 -2.4837351,1.1709323 -4.0810507,3.3090709 -1.5973153,2.1381389 -2.3082106,5.243484 -2.3082106,5.243484 z"
           id="path2767"
           sodipodi:nodetypes="cscsc"
           inkscape:connector-curvature="0" />
        <path
           style="color:#000000;display:inline;overflow:visible;visibility:visible;fill:#ffffff;fill-opacity:0.39726;fill-rule:evenodd;stroke:none;stroke-width:2;marker:none"
           d="m 1.6890046,7.631036 c 0,0 0.099986,-2.579673 0.9604171,-3.731431 C 3.5098524,2.7478473 5.593189,2.0990822 5.593189,2.0990822 c 0,0 -1.3850826,0.9962887 -2.2455136,2.1480464 C 2.4872446,5.3988866 1.6890046,7.631036 1.6890046,7.631036 Z"
           id="path3497"
           sodipodi:nodetypes="cscsc"
           inkscape:connector-curvature="0" />
        <path
           style="color:#000000;display:inline;overflow:visible;visibility:visible;opacity:1;fill:#000000;fill-opacity:0.219608;fill-rule:evenodd;stroke:none;stroke-width:2;stroke-linecap:butt;stroke-linejoin:miter;stroke-miterlimit:4;stroke-dasharray:none;stroke-dashoffset:0;stroke-opacity:1;marker:none;marker-start:none;marker-mid:none;marker-end:none"
           d="m 14.443078,6.1941895 c 0,0 0.540824,3.7983408 -1.056492,5.9364785 -1.597315,2.138139 -5.3327695,2.616076 -5.3327695,2.616076 0,0 2.7292715,-1.081647 4.3265865,-3.219785 1.597316,-2.1381387 2.062675,-5.3327695 2.062675,-5.3327695 z"
           id="path3499"
           sodipodi:nodetypes="cscsc" />
        <path
           style="color:#000000;display:inline;overflow:visible;visibility:visible;opacity:1;fill:#000000;fill-opacity:0.172549;fill-rule:evenodd;stroke:none;stroke-width:2;stroke-linecap:butt;stroke-linejoin:miter;stroke-miterlimit:4;stroke-dasharray:none;stroke-dashoffset:0;stroke-opacity:1;marker:none;marker-start:none;marker-mid:none;marker-end:none"
           d="m 14.163585,8.273673 c 0,0 -0.09999,2.579673 -0.960417,3.731431 -0.86043,1.151757 -2.943767,1.800522 -2.943767,1.800522 0,0 1.541332,-0.973967 2.401763,-2.125724 0.860431,-1.151759 1.502421,-3.406229 1.502421,-3.406229 z"
           id="path3501"
           sodipodi:nodetypes="cscsc" />
        <path
           style="color:#000000;display:inline;overflow:visible;visibility:visible;fill:#ffffff;fill-opacity:0.435294;fill-rule:evenodd;stroke:none;stroke-width:2;marker:none"
           d="m 2.2247189,5.6221072 c 0,0 -0.1009069,-0.4814587 0.7595242,-1.6332167 0.8604307,-1.1517577 1.3143031,-1.0415942 1.3143031,-1.0415942 0,0 -0.3136541,0.036467 -1.1740851,1.188225 -0.8604308,1.151758 -0.8997422,1.4865859 -0.8997422,1.4865859 z"
           id="path3497-1"
           sodipodi:nodetypes="cscsc"
           inkscape:connector-curvature="0" />
      </g>
    </g>
    <g
       id="g2538"
       transform="translate(534.67453)">
      <path
         style="fill:#000000;fill-opacity:0.0508005;stroke:none;stroke-width:1px;stroke-linecap:butt;stroke-linejoin:miter;stroke-opacity:1"
         d="m 107.01059,262.01693 c 0,0 27.79868,-16.57952 35.43351,-27.67049 7.63484,-11.09097 10.51932,-34.25212 10.51932,-34.25212 L 270.84912,59.774593 122.8894,40.60537 190.40981,-7.0217439 159.28448,-7.964816 -36.981053,59.837727 l 1.998602,13.230631 131.400722,16.02828 -28.48354,14.333512 c 0,0 -21.274169,0.27631 -30.870814,2.2689 -9.596645,1.99259 -15.879279,2.78937 -26.295533,9.18607 -10.41625441,6.3967 -32.802336,31.514 -32.802336,31.514 l -40.167374,11.58321 V -21.05734 H 301.11227 v 287.44759 z"
         id="path1908"
         sodipodi:nodetypes="czccccccccczzcccccc" />
      <path
         style="fill:#000000;fill-opacity:0.0508005;stroke:none;stroke-width:1px;stroke-linecap:butt;stroke-linejoin:miter;stroke-opacity:1"
         d="m 136.04353,258.09989 c 0,0 15.8943,-7.58811 21.1342,-12.80134 5.2399,-5.21323 7.90966,-9.52961 10.26089,-16.74665 2.35123,-7.21704 2.07449,-25.81892 2.07449,-25.81892 L 296.52483,54.574497 285.08649,49.13923 161.1077,34.245257 l 51.80106,-44.898159 -64.14621,-3.384486 -201.714559,67.968749 3.66211,25.043248 115.119977,11.809431 -4.870257,5.877511 c 0,0 -21.503983,0.123553 -32.096819,2.219587 -10.592836,2.096032 -19.1185019,4.454422 -30.9430801,10.311102 -11.8245779,5.85668 -38.4751669,26.21513 -38.4751669,26.21513 l -20.820313,2.97293 1.363003,-161.376952 362.456745,-0.696149 3.0692,151.549941 0.004,136.88337 z"
         id="path2116"
         sodipodi:nodetypes="czzcccccccccczzccccccc" />
      <path
         style="fill:#000000;fill-opacity:0.0508005;stroke:none;stroke-width:1px;stroke-linecap:butt;stroke-linejoin:miter;stroke-opacity:1"
         d="m 159.39891,261.69856 c 0,0 19.2359,-10.79485 23.93588,-17.65597 4.69998,-6.86112 4.77527,-12.86987 5.29739,-19.44741 0.52212,-6.57754 -2.08542,-19.32114 -2.08542,-19.32114 L 315.21692,59.671999 309.13035,40.15159 195.28695,27.137985 l 48.77735,-45.585107 -96.55244,-8.732295 -212.530565,75.611496 1.819064,37.391428 86.656093,5.985943 -23.56299153,5.214518 -57.75231447,21.872172 -25.044681,1.04961 11.186651,-148.492424 260.191224,-7.347281 145.38305,9.308397 -7.2585,209.170628 -35.62564,102.96059 z"
         id="path2364"
         sodipodi:nodetypes="czzcccccccccccccccccc" />
    </g>
    <rect
       style="fill:#ffffff;fill-opacity:0.890798;stroke-width:2.62833"
       id="rect1432-3"
       width="9.6867733"
       height="28.575979"
       x="138.04596"
       y="114.68925" />
    <rect
       style="fill:#ffffff;fill-opacity:0.890798;stroke-width:2.62833"
       id="rect1432-3-6"
       width="9.6867733"
       height="28.575979"
       x="111.23341"
       y="114.68925" />
    <path
       style="fill:#fffffa;fill-opacity:1;stroke:none;stroke-width:1px;stroke-linecap:butt;stroke-linejoin:miter;stroke-opacity:1"
       d="m 166.38183,117.08217 c 0,0 4.51558,-19.324617 13.49122,-22.31794 8.97564,-2.993323 28.464,11.4774 28.464,11.4774 l -6.93757,0.84048 c 0,0 -11.83649,-8.818815 -19.04576,-6.34068 -7.20927,2.47813 -14.22084,21.36649 -14.22084,21.36649 z"
       id="path14447"
       sodipodi:nodetypes="czcczcc" />
    <path
       style="fill:#fffffa;fill-opacity:1;stroke:none;stroke-width:1px;stroke-linecap:butt;stroke-linejoin:miter;stroke-opacity:1"
       d="M 205.46456,105.78805 183.77441,57.426758 c 0,0 -6.63603,-0.859052 -8.58398,-2.636719 -1.94795,-1.777667 -2.94366,-3.705655 -2.59766,-6.330915 0.346,-2.62526 2.5061,-4.983988 5.4841,-7.192383 2.978,-2.208395 8.69592,-5.147268 12.36886,-4.61077 3.67294,0.536498 6.35726,2.983279 7.23842,5.467355 0.88116,2.484076 0.0396,4.476982 -1.61691,6.546456 -1.65653,2.069474 -8.19754,4.0911 -8.19754,4.0911 l -0.9668,-1.798968 c 0,0 5.48015,-2.134279 6.72224,-3.639788 1.24209,-1.505509 1.70684,-2.314901 1.2214,-3.878348 -0.48544,-1.563447 -1.88815,-3.114421 -4.53474,-3.545619 -2.64659,-0.431198 -7.38447,1.799486 -9.73912,3.45145 -2.35465,1.651964 -3.97741,3.469576 -4.39662,5.350865 -0.41921,1.881289 -0.42408,2.857958 1.14467,4.495676 1.56875,1.637718 8.58747,2.584403 8.58747,2.584403 l 22.4721,50.491587 z"
       id="path14721"
       sodipodi:nodetypes="cczzzzzzcczzzzzzccc" />
    <path
       style="fill:#fffffa;stroke:none;stroke-width:1px;stroke-linecap:butt;stroke-linejoin:miter;stroke-opacity:1;fill-opacity:1"
       d="m 182.16187,40.767646 c 0,0 -3.07373,-7.983116 -1.49845,-11.007112 1.57528,-3.023996 5.11208,-4.475074 8.31452,-4.275885 3.20244,0.199189 4.67246,1.584527 8.17691,5.58494 3.50445,4.000413 9.9131,19.648651 9.9131,19.648651 0,0 0.20759,4.029166 -1.8452,5.080357 -2.05279,1.051191 -8.11378,-2.297012 -8.11378,-2.297012 l -0.70187,1.810679 c 0,0 6.48571,4.076398 9.27781,2.835135 2.7921,-1.241263 3.65786,-7.818817 3.65786,-7.818817 0,0 -6.28448,-15.500906 -10.02606,-19.923385 -3.74158,-4.422479 -5.93258,-7.03483 -10.04332,-7.363558 -4.11074,-0.328728 -9.0137,1.918963 -10.94004,5.599243 -1.92633,3.680281 1.67948,12.521848 1.67948,12.521848"
       id="path15079"
       sodipodi:nodetypes="czzzczcczczzzc" />
    <path
       style="fill:#fffffa;fill-opacity:1;stroke:none;stroke-width:1px;stroke-linecap:butt;stroke-linejoin:miter;stroke-opacity:1"
       d="m 190.79583,25.572754 c 0,0 0.226,-3.936222 1.56474,-5.33271 1.33874,-1.396488 3.31187,-1.912549 5.38962,-1.843233 2.07775,0.06932 3.77473,0.05716 6.25229,2.615644 2.47756,2.55848 11.61823,24.979573 11.61823,24.979573 0,0 -0.72077,6.038127 -2.65905,7.020757 -1.93828,0.98263 -5.33043,-1.477249 -5.33043,-1.477249 l -0.42566,1.860496 c 0,0 4.45414,3.079721 6.94726,1.676024 2.49312,-1.403696 3.0423,-9.547125 3.0423,-9.547125 0,0 -7.12462,-20.744573 -11.58716,-25.44371 -4.46254,-4.699137 -5.32507,-3.742912 -7.9007,-3.845288 -2.57563,-0.102376 -4.70078,0.80393 -6.21875,2.437092 -1.51797,1.633162 -1.98232,6.398784 -1.98232,6.398784"
       id="path15327"
       sodipodi:nodetypes="czzzczcczczzzc" />
    <path
       style="fill:#fffffa;fill-opacity:1;stroke:none;stroke-width:1px;stroke-linecap:butt;stroke-linejoin:miter;stroke-opacity:1"
       d="m 200.14338,17.705784 c 0,0 0.64825,-3.316814 2.04694,-4.103251 1.39869,-0.786437 3.70347,-0.344403 5.07737,0.283983 1.3739,0.628386 1.7411,0.299715 4.37209,4.249372 2.63099,3.949657 9.37301,23.69518 9.37301,23.69518 0,0 -0.5296,6.075573 -2.01093,6.999548 -1.48133,0.923975 -3.14341,-0.557853 -3.14341,-0.557853 l -0.48041,1.823503 c 0,0 2.80084,1.877628 4.77553,0.548482 1.97469,-1.329146 2.54166,-9.127873 2.54166,-9.127873 0,0 -6.6973,-20.104653 -9.24526,-23.942786 -2.54796,-3.838133 -2.95271,-4.019069 -5.13965,-4.943513 -2.18694,-0.924444 -5.36059,-1.474032 -7.24555,-0.388618 -1.88496,1.085414 -2.66288,5.450286 -2.66288,5.450286"
       id="path16354"
       sodipodi:nodetypes="czzzczcczczzzc" />
    <path
       style="fill:#fffffa;fill-opacity:1;stroke:none;stroke-width:1px;stroke-linecap:butt;stroke-linejoin:miter;stroke-opacity:1"
       d="m 212.46477,17.086356 c 0.99264,-0.388291 2.67867,-1.221219 4.99129,0.551758 2.31262,1.772977 4.69742,8.842097 4.53857,11.606794 -0.15885,2.764697 -1.12339,3.159699 -1.94545,3.669085 -0.82206,0.509386 -1.649,0.04325 -1.649,0.04325 l 0.33343,1.765834 c 0,0 0.7321,0.418681 1.79269,-0.357492 1.06059,-0.776173 2.72007,-2.126382 2.92585,-5.304129 0.20578,-3.177747 -2.27218,-9.991206 -4.77644,-12.143206 -2.50426,-2.152 -5.21157,-1.863013 -6.59389,-1.500419 -1.38232,0.362594 -1.2009,1.200561 -1.2009,1.200561 l 1.05023,1.459264 c 0,0 -0.45901,-0.603009 0.53362,-0.9913 z"
       id="path16944"
       sodipodi:nodetypes="zzzzcczzzzccz" />
    <path
       style="fill:#fffffa;stroke:none;stroke-width:1px;stroke-linecap:butt;stroke-linejoin:miter;stroke-opacity:1;fill-opacity:1"
       d="m 217.02986,50.574079 17.77064,65.569201 c 0,0 -0.36396,14.35442 -3.9495,18.2666 -3.58554,3.91218 -12.56417,3.88672 -12.56417,3.88672 0,0 -10.68698,14.53917 -19.08133,16.56598 -8.39435,2.02681 -25.77637,-6.33858 -25.77637,-6.33858 l -0.5964,4.86955 c 0,0 18.3147,8.911 27.19029,6.74456 8.87559,-2.16644 20.11579,-17.71275 20.11579,-17.71275 0,0 8.82566,1.05377 13.18918,-3.39704 4.36352,-4.45081 5.47363,-23.13965 5.47363,-23.13965 l -19.4601,-66.194195"
       id="path17633"
       sodipodi:nodetypes="cczczcczczcc" />
    <path
       style="fill:#ffffff;fill-opacity:0.186038;stroke:none;stroke-width:1px;stroke-linecap:butt;stroke-linejoin:miter;stroke-opacity:1"
       d="m 170.91099,121.17955 c 0,0 6.64829,-16.50211 13.22475,-18.43611 6.57646,-1.934 17.14914,6.78014 17.14914,6.78014 l 9.7991,-1.17885 -24.22084,-53.015838 c 0,0 -5.26572,-0.859947 -6.87395,-1.797572 -1.60823,-0.937625 -2.53112,-1.450475 -2.83203,-2.915388 -0.30091,-1.464913 0.17508,-2.712131 1.75537,-4.583915 1.58029,-1.871784 6.08519,-4.491468 8.42564,-4.984305 2.34045,-0.492837 4.52881,0.541992 4.52881,0.541992 0,0 -1.76364,-0.05761 -3.78941,0.645229 -2.02577,0.702838 -6.53976,2.615664 -7.92027,4.319197 -1.38051,1.703533 -1.45069,2.829805 -1.18443,3.961356 0.26626,1.131551 0.48135,1.179546 1.94161,2.072753 1.46026,0.893207 7.14146,2.052526 7.14146,2.052526 l 25.60233,55.408765 -11.58656,1.84988 c 0,0 -10.63117,-8.21845 -16.88512,-6.45263 -6.25395,1.76582 -12.74693,16.58133 -12.74693,16.58133 z"
       id="path18259"
       sodipodi:nodetypes="czccczzzzczzzzccczcc" />
    <path
       style="fill:#ffffff;stroke:none;stroke-width:1px;stroke-linecap:butt;stroke-linejoin:miter;stroke-opacity:1;fill-opacity:1"
       d="m 188.02281,37.80692 -1.47356,-3.570731 1.87569,0.761021 1.19315,2.677176"
       id="path18484" />
    <path
       style="fill:#fffffa;fill-opacity:1;stroke:none;stroke-width:1px;stroke-linecap:butt;stroke-linejoin:miter;stroke-opacity:1"
       d="m 197.25836,53.627177 c -0.79577,-0.875983 -2.55066,-3.839597 -3.04938,-4.795821 -0.49872,-0.956224 -0.601,-0.399624 -0.601,-0.399624 l -1.03752,0.758847 c 0,0 -0.40209,0.02755 0.36054,1.337024 0.76263,1.309473 2.18241,3.605127 3.08834,4.445786 0.90592,0.84066 1.93749,0.938361 1.93749,0.938361 l 0.47965,-1.116391 c 0,0 -0.38235,-0.292199 -1.17812,-1.168182 z"
       id="path18764"
       sodipodi:nodetypes="zzcczzccz" />
    <path
       style="fill:#fffffa;stroke:none;stroke-width:1px;stroke-linecap:butt;stroke-linejoin:miter;stroke-opacity:1;fill-opacity:0.19"
       d="m 182.14233,37.955671 c 0,0 -1.4638,-4.255077 -1.34155,-5.885184 0.12225,-1.630107 0.43877,-2.461533 1.37748,-3.51144 0.93871,-1.049907 2.54929,-1.80899 4.13748,-2.183315 1.58819,-0.374325 5.11074,0.115619 5.11074,0.115619 0,0 -3.36524,0.320373 -4.76894,0.815604 -1.4037,0.495231 -2.83953,1.062487 -3.57404,1.99428 -0.73451,0.931793 -0.73163,1.529134 -0.81665,2.913818 -0.085,1.384684 0.79485,5.237688 0.79485,5.237688 z"
       id="path20940"
       sodipodi:nodetypes="czzzczzzcc" />
    <path
       style="fill:#fffffa;stroke:none;stroke-width:1px;stroke-linecap:butt;stroke-linejoin:miter;stroke-opacity:1;fill-opacity:0.19"
       d="m 191.75188,23.299212 c 0,0 0.51021,-2.047308 1.20955,-2.774484 0.8347,-0.867922 2.06977,-1.34634 3.25265,-1.571742 1.29318,-0.24642 2.66648,-0.04826 3.93868,0.290178 0.93607,0.249019 2.62103,1.254709 2.62103,1.254709 0,0 -2.1458,-0.398337 -3.23068,-0.501884 -1.09849,-0.104846 -2.23569,-0.379099 -3.30828,-0.119803 -0.94875,0.229359 -1.87698,0.728628 -2.55476,1.431013 -0.54497,0.564751 -1.07666,2.093854 -1.07666,2.093854 z"
       id="path21168"
       sodipodi:nodetypes="cssscssscc" />
    <path
       style="fill:#fffffa;stroke:none;stroke-width:1px;stroke-linecap:butt;stroke-linejoin:miter;stroke-opacity:1;fill-opacity:0.19"
       d="m 201.01703,16.136792 c 0,0 0.59066,-1.547354 1.18932,-2.001068 0.59866,-0.453714 1.1681,-0.573156 2.10452,-0.565498 0.93642,0.0077 2.42146,0.549944 3.30668,0.946771 0.88522,0.396827 2.01229,1.272802 2.01229,1.272802 0,0 -1.63878,-0.431797 -2.53389,-0.663036 -0.89511,-0.231239 -2.09923,-0.754107 -2.83699,-0.723458 -0.73776,0.03065 -1.00018,0.158296 -1.42016,0.490773 -0.41998,0.332477 -0.9152,1.446052 -0.9152,1.446052 z"
       id="path21279"
       sodipodi:nodetypes="czzzczzzcc" />
    <path
       style="fill:#fffffa;stroke:none;stroke-width:1px;stroke-linecap:butt;stroke-linejoin:miter;stroke-opacity:1;fill-opacity:0.19"
       d="m 213.32459,16.998204 c 0,0 0.99141,-0.26552 1.59101,-0.211879 0.5996,0.05364 1.40668,0.303006 1.91075,0.613839 0.50407,0.310833 1.08363,1.10308 1.08363,1.10308 0,0 -0.88739,-0.557906 -1.3848,-0.749076 -0.49741,-0.19117 -1.09355,-0.355118 -1.57715,-0.382603 -0.4836,-0.02748 -1.27345,0.159301 -1.27345,0.159301 z"
       id="path21765"
       sodipodi:nodetypes="czzczzcc" />
    <path
       style="fill:#000000;fill-opacity:0.15;stroke:none;stroke-width:1px;stroke-linecap:butt;stroke-linejoin:miter;stroke-opacity:1"
       d="m 174.78809,147.54248 c 0,0 15.81563,5.32669 20.51806,5.45557 4.70243,0.12888 2.59802,0.86533 6.84766,-1.42432 4.24964,-2.28965 15.56689,-15.50195 15.56689,-15.50195 0,0 4.43397,-0.0765 6.37012,-0.37012 1.93615,-0.29365 4.40684,0.0791 6.7959,-3.18701 2.38906,-3.26611 2.33496,-16.63037 2.33496,-16.63037 l -16.46118,-63.425296 -0.99353,2.55162 15.19446,61.788716 c 0,0 0.28004,12.00228 -1.81275,14.77856 -2.09279,2.77628 -3.89756,2.10317 -5.49731,2.33057 -1.59975,0.2274 -6.69751,0.10888 -6.69751,0.10888 0,0 -11.7419,12.89371 -15.75586,15.11182 -4.01396,2.21811 -0.93979,1.40805 -5.51489,1.37964 -4.5751,-0.0284 -21.04834,-5.54419 -21.04834,-5.54419 z"
       id="path21876"
       sodipodi:nodetypes="czzczzcccczzczzcc" />
    <path
       style="fill:#000000;stroke:none;stroke-width:1px;stroke-linecap:butt;stroke-linejoin:miter;stroke-opacity:1;fill-opacity:0.15000001"
       d="m 193.50143,42.306772 c 0,0 0.81926,0.846603 0.85626,1.695261 0.037,0.848658 0.0101,1.667259 -1.18772,2.968778 -1.19778,1.301519 -6.63275,3.315426 -6.63275,3.315426 l -0.92549,-1.155608 c 0,0 5.03401,-1.668745 6.24709,-2.657693 1.21308,-0.988948 1.3212,-1.44132 1.47999,-2.139792 0.15879,-0.698472 -0.26689,-1.67489 -0.26689,-1.67489 z"
       id="path23343"
       sodipodi:nodetypes="czzcczzcc" />
    <path
       style="fill:#000000;fill-opacity:0.15;stroke:none;stroke-width:1px;stroke-linecap:butt;stroke-linejoin:miter;stroke-opacity:1"
       d="m 192.47357,27.109155 c 0,0 2.86757,2.254423 4.80111,4.974262 1.93354,2.719839 4.44578,8.554807 5.91736,11.697645 1.47158,3.142838 3.05665,7.081081 3.05665,7.081081 0,0 0.0346,2.843584 -0.48752,3.606141 -0.52215,0.762557 -0.20956,0.784071 -1.66885,0.921172 -1.45929,0.137101 -5.12869,-1.071674 -6.54488,-2.147215 -1.41619,-1.075541 -2.10009,-3.145037 -2.10009,-3.145037 l 0.87267,-0.340088 c 0,0 0.81697,2.091315 2.06556,3.008311 1.24859,0.916996 4.24545,1.706193 5.39721,1.656591 1.15176,-0.0496 0.76878,0.108787 1.17874,-0.476123 0.40996,-0.58491 0.10772,-3.012455 0.10772,-3.012455 0,0 -5.85636,-14.430306 -8.4088,-18.242871 -2.55244,-3.812565 -5.0611,-5.454701 -5.0611,-5.454701 z"
       id="path23511"
       sodipodi:nodetypes="czzczzzcczzzczcc" />
    <path
       style="fill:#000000;stroke:none;stroke-width:1px;stroke-linecap:butt;stroke-linejoin:miter;stroke-opacity:1;fill-opacity:0.15000001"
       d="m 209.77588,51.964111 c 0,0 1.20302,0.451314 1.80688,0.398438 0.60386,-0.05288 0.77899,0.260177 1.65137,-0.682129 0.87238,-0.942306 1.83179,-5.627441 1.83179,-5.627441 l -10.52743,-23.763924 -1.23182,-1.490345 -1.07836,0.04419 1.73177,1.878511 9.955,23.438018 c 0,0 -0.54135,3.895549 -1.21491,4.68182 -0.67356,0.786271 -0.73726,0.498547 -1.26221,0.545608 -0.52495,0.04706 -1.74049,-0.406034 -1.74049,-0.406034 z"
       id="path23987"
       sodipodi:nodetypes="czzcccccczzcc" />
    <path
       style="fill:#000000;stroke:none;stroke-width:1px;stroke-linecap:butt;stroke-linejoin:miter;stroke-opacity:1;fill-opacity:0.15000001"
       d="m 209.76368,16.30368 2.33849,3.456295 8.34838,22.31167 c 0,0 -0.32998,4.103708 -0.81798,5.156993 -0.488,1.053285 -0.66696,1.10898 -1.13709,1.321777 -0.47013,0.212797 -1.35266,-0.01392 -1.35266,-0.01392 l 0.20533,-1.130981 c 0,0 0.55896,0.138645 0.88122,-0.0032 0.32226,-0.141845 0.4355,-0.05395 0.83496,-0.905029 0.39946,-0.851082 0.58264,-4.370972 0.58264,-4.370972 l -8.1477,-21.986206 -2.67285,-4.011719 z"
       id="path24805"
       sodipodi:nodetypes="ccczzcczzcccc" />
    <path
       style="fill:#000000;stroke:none;stroke-width:1px;stroke-linecap:butt;stroke-linejoin:miter;stroke-opacity:1;fill-opacity:0.15000001"
       d="m 218.46887,19.207153 c 0,0 1.26755,3.475447 1.68506,5.073609 0.41751,1.598162 0.84619,3.329627 0.86389,4.482178 0.0177,1.152551 -0.0421,1.837709 -0.3739,2.321533 -0.33177,0.483824 -1.00915,0.588989 -1.00915,0.588989 l 0.27319,0.916992 c 0,0 0.74817,-0.364743 1.01233,-0.659668 0.26416,-0.294925 0.35012,-0.519653 0.52612,-1.041992 0.176,-0.522339 0.39747,-1.048401 0.38819,-2.10437 -0.009,-1.055969 -0.4403,-2.754827 -0.83362,-4.112549 -0.39332,-1.357722 -1.05572,-3.110467 -1.52539,-4.004394 -0.46967,-0.893927 -1.00672,-1.460328 -1.00672,-1.460328 z"
       id="path25068"
       sodipodi:nodetypes="czzzcczzzzzc" />
    <path
       style="fill:none;stroke:#ffffff;stroke-width:3;stroke-linecap:butt;stroke-linejoin:miter;stroke-miterlimit:4;stroke-dasharray:none;stroke-opacity:1"
       d="M 166.67867,101.27302 151.45447,89.888878"
       id="path25354" />
    <path
       style="fill:none;stroke:#ffffff;stroke-width:3;stroke-linecap:butt;stroke-linejoin:miter;stroke-miterlimit:4;stroke-dasharray:none;stroke-opacity:1"
       d="M 173.93643,90.746337 164.99835,73.9688"
       id="path25354-6" />
    <path
       style="fill:none;stroke:#ffffff;stroke-width:3;stroke-linecap:butt;stroke-linejoin:miter;stroke-miterlimit:4;stroke-dasharray:none;stroke-opacity:1"
       d="m 182.86614,88.670608 0.50484,-19.003159"
       id="path25354-6-1" />
    <g
       id="g27648"
       transform="matrix(0.79101214,0,0,0.79101214,3.7270026,29.848799)">
      <path
         style="fill:none;stroke:#ffffff;stroke-width:4;stroke-linecap:butt;stroke-linejoin:miter;stroke-miterlimit:4;stroke-dasharray:none;stroke-opacity:1"
         d="m 49.276397,191.21225 27.912435,-0.8825 c 0,0 7.187364,5.64231 6.290764,9.63018 -0.8966,3.98787 -11.102405,6.80452 -11.102405,6.80452 0,0 10.737295,3.22918 10.784755,7.80856 0.0475,4.57938 -11.297131,8.54191 -11.297131,8.54191 0,0 9.347231,3.8262 9.041851,7.82651 -0.30538,4.00031 -10.25581,6.44544 -10.25581,6.44544 0,0 5.712767,1.79789 4.92627,5.78392 -0.786497,3.98603 -14.916915,7.68426 -14.916915,7.68426 0,0 -20.689441,-3.95243 -27.925194,-9.43546 -7.235753,-5.48303 -12.508608,-11.36044 -14.107609,-20.63315 -1.599001,-9.27271 8.033673,-30.41941 8.033673,-30.41941 0,0 11.058201,-13.04435 16.959514,-13.66428 5.901313,-0.61993 9.544733,3.53451 12.331555,6.24657 2.786822,2.71206 4.52576,8.36236 4.52576,8.36236"
         id="path27000"
         sodipodi:nodetypes="cczczczczczzczzc" />
      <path
         style="fill:none;stroke:#ffffff;stroke-width:4;stroke-linecap:butt;stroke-linejoin:miter;stroke-miterlimit:4;stroke-dasharray:none;stroke-opacity:1"
         d="m 72.88379,206.58349 -10.463379,0.96143"
         id="path27396" />
      <path
         style="fill:none;stroke:#ffffff;stroke-width:4;stroke-linecap:butt;stroke-linejoin:miter;stroke-miterlimit:4;stroke-dasharray:none;stroke-opacity:1"
         d="m 71.897461,222.95312 -8.727539,0.10693"
         id="path27398" />
      <path
         style="fill:none;stroke:#ffffff;stroke-width:4;stroke-linecap:butt;stroke-linejoin:miter;stroke-miterlimit:4;stroke-dasharray:none;stroke-opacity:1"
         d="M 70.681153,237.32519 61.00879,236.37304"
         id="path27400" />
    </g>
    <path
       style="fill:#ffffff;stroke:none;stroke-width:1px;stroke-linecap:butt;stroke-linejoin:miter;stroke-opacity:1;fill-opacity:0.19"
       d="m 21.356144,201.06554 c -0.12088,-5.04936 2.456376,-14.55133 5.531868,-19.38882 3.075492,-4.83749 7.956196,-8.30249 10.735731,-9.34257 2.779535,-1.04008 1.961182,-0.52337 3.574895,0 1.613713,0.52337 4.270375,2.74173 5.346804,3.87596 1.076429,1.13423 1.510888,2.33159 1.510888,2.33159 l -1.857881,0.22408 c 0,0 -0.657312,-1.23861 -1.666604,-2.03915 -1.009292,-0.80054 -3.425311,-2.0925 -4.576169,-2.24182 -1.150858,-0.14932 0.327258,-0.70317 -1.83095,0.36633 -2.158208,1.0695 -6.701311,3.88912 -9.438909,8.3237 -2.737598,4.43458 -4.3331,13.39547 -4.767792,18.06575 -0.434692,4.67028 0.684319,9.43373 0.684319,9.43373 0,0 -3.12532,-4.55942 -3.2462,-9.60878 z"
       id="path27683"
       sodipodi:nodetypes="zzzzzcczzzzzcz" />
    <path
       style="fill:#ffffff;stroke:none;stroke-width:1px;stroke-linecap:butt;stroke-linejoin:miter;stroke-opacity:1;fill-opacity:0.19"
       d="m 43.544381,183.36197 20.337607,-0.77616 -1.915541,1.37175 -17.469129,0.74854 z"
       id="path27813" />
    <path
       style="fill:#ffffff;stroke:none;stroke-width:1px;stroke-linecap:butt;stroke-linejoin:miter;stroke-opacity:1;fill-opacity:0.19"
       d="m 60.359229,195.58063 -6.991311,0.6674 0.18092,1.22984 5.882313,-0.9122 z"
       id="path27815" />
    <path
       style="fill:#ffffff;stroke:none;stroke-width:1px;stroke-linecap:butt;stroke-linejoin:miter;stroke-opacity:1;fill-opacity:0.19"
       d="m 54.153055,208.6911 5.582967,-0.19369 -0.830367,0.91875 -4.711168,0.10911 z"
       id="path27817" />
    <path
       style="fill:#000000;stroke:none;stroke-width:1px;stroke-linecap:butt;stroke-linejoin:miter;stroke-opacity:1;fill-opacity:0.15000001"
       d="m 25.280794,212.4956 c 0,0 2.782752,4.46982 6.965416,7.08005 4.182664,2.61023 18.638202,6.22378 18.638202,6.22378 0,0 4.19144,-0.94654 5.789782,-1.65349 1.598342,-0.70695 3.79552,-2.35161 3.79552,-2.35161 l -1.906564,-2.02257 -1.653484,1.08103 0.912541,1.03753 c 0,0 -0.972631,0.59674 -2.141345,1.00144 -1.168715,0.4047 -4.924544,1.14922 -4.924544,1.14922 0,0 -12.685421,-3.16871 -16.825896,-5.73971 -4.140475,-2.571 -8.129311,-8.08409 -8.129311,-8.08409 z"
       id="path27819"
       sodipodi:nodetypes="czczcccczczcc" />
    <path
       style="fill:#000000;stroke:none;stroke-width:1px;stroke-linecap:butt;stroke-linejoin:miter;stroke-opacity:1;fill-opacity:0.15000001"
       d="m 52.613509,214.87967 c 0,0 4.975199,0.86231 6.907066,0.59973 1.931867,-0.26258 3.482151,-1.04768 4.464648,-1.66419 0.982497,-0.61651 1.584775,-1.51831 1.584775,-1.51831 l -1.573381,-1.69889 -1.156645,0.945 0.81742,1.03442 c 0,0 -0.624525,0.65622 -1.349994,1.01474 -0.725469,0.35852 -1.41155,0.68993 -3.04888,0.85505 -1.63733,0.16512 -6.689721,-0.48527 -6.689721,-0.48527 z"
       id="path28139"
       sodipodi:nodetypes="czzcccczzcc" />
    <path
       style="fill:#000000;stroke:none;stroke-width:1px;stroke-linecap:butt;stroke-linejoin:miter;stroke-opacity:1;fill-opacity:0.15000001"
       d="m 53.940716,204.31985 c 0,0 4.567208,0.40333 6.517259,-0.0872 1.950051,-0.49053 3.817362,-1.78737 4.921436,-2.55894 1.104074,-0.77157 1.871174,-1.70994 1.871174,-1.70994 l -0.583674,-1.79539 -2.11217,-0.87801 1.095186,1.34758 0.288298,1.1903 c 0,0 -0.184667,0.56112 -1.031657,1.22156 -0.84699,0.66044 -2.437306,1.67902 -4.352263,2.1296 -1.914957,0.45058 -6.957993,0.0496 -6.957993,0.0496 z"
       id="path28231"
       sodipodi:nodetypes="czzccccczzcc" />
    <path
       style="fill:#000000;stroke:none;stroke-width:1px;stroke-linecap:butt;stroke-linejoin:miter;stroke-opacity:1;fill-opacity:0.15000001"
       d="m 66.083238,184.44093 c 0,0 1.020471,1.32383 1.176152,1.99668 0.155681,0.67285 -0.14156,1.82094 -0.14156,1.82094 0,0 -3.371134,2.14466 -5.788228,2.81755 -2.417094,0.67289 -8.581611,0.77461 -8.581611,0.77461 l -0.655317,-1.61309 c 0,0 6.436667,0.067 8.776859,-0.42399 2.340192,-0.49102 5.192816,-1.98649 5.192816,-1.98649 0,0 0.273585,-1.01072 0.200773,-1.55681 -0.07281,-0.54609 -0.66533,-1.60325 -0.66533,-1.60325 z"
       id="path28361"
       sodipodi:nodetypes="czczcczczcc" />
    <path
       style="fill:#ffffff;stroke:none;stroke-width:1px;stroke-linecap:butt;stroke-linejoin:miter;stroke-opacity:1;fill-opacity:0.19"
       d="m 56.768311,219.5105 -4.653809,-0.45777 0.234619,0.55396 4.138916,0.65479 z"
       id="path29217" />
  </g>
</svg>
