<?xml version="1.0" encoding="UTF-8" standalone="no"?>
<!-- Created with Inkscape (http://www.inkscape.org/) -->

<svg
   width="256"
   height="256"
   id="svg2"
   sodipodi:version="0.32"
   inkscape:version="1.1.2 (0a00cf5339, 2022-02-04)"
   sodipodi:docname="dotsweep_steam_achievement_fullcombo.svg"
   inkscape:export-filename="g:\newcode\java\dc\rev2\ball0700.png"
   inkscape:export-xdpi="90.000000"
   inkscape:export-ydpi="90.000000"
   version="1.1"
   xmlns:inkscape="http://www.inkscape.org/namespaces/inkscape"
   xmlns:sodipodi="http://sodipodi.sourceforge.net/DTD/sodipodi-0.dtd"
   xmlns="http://www.w3.org/2000/svg"
   xmlns:svg="http://www.w3.org/2000/svg"
   xmlns:rdf="http://www.w3.org/1999/02/22-rdf-syntax-ns#"
   xmlns:cc="http://creativecommons.org/ns#"
   xmlns:dc="http://purl.org/dc/elements/1.1/">
  <defs
     id="defs4" />
  <sodipodi:namedview
     id="base"
     pagecolor="#ffffff"
     bordercolor="#666666"
     borderopacity="1.0"
     inkscape:pageopacity="0.0"
     inkscape:pageshadow="2"
     inkscape:zoom="0.9899495"
     inkscape:cx="-5.0507627"
     inkscape:cy="249.0026"
     inkscape:document-units="px"
     inkscape:current-layer="layer1"
     borderlayer="true"
     inkscape:showpageshadow="false"
     inkscape:window-width="1680"
     inkscape:window-height="986"
     inkscape:window-x="0"
     inkscape:window-y="0"
     showgrid="false"
     inkscape:window-maximized="1"
     inkscape:pagecheckerboard="0"
     inkscape:snap-global="false" />
  <metadata
     id="metadata7">
    <rdf:RDF>
      <cc:Work
         rdf:about="">
        <dc:format>image/svg+xml</dc:format>
        <dc:type
           rdf:resource="http://purl.org/dc/dcmitype/StillImage" />
      </cc:Work>
    </rdf:RDF>
  </metadata>
  <g
     inkscape:label="Layer 1"
     inkscape:groupmode="layer"
     id="layer1">
    <rect
       style="fill:#2f97da;fill-opacity:1;stroke:none"
       id="rect4477"
       width="466.67209"
       height="414.73792"
       x="-103.38654"
       y="-318.23059"
       transform="matrix(-0.00228683,0.99999739,-0.99999912,-0.00132987,0,0)" />
    <g
       id="g4253"
       transform="matrix(0.88201168,-0.47122754,-0.47122754,-0.88201168,67.823745,246.74792)">
      <path
         style="fill:#000000;fill-opacity:0.05;stroke:none;stroke-width:1px;stroke-linecap:butt;stroke-linejoin:miter;stroke-opacity:1"
         d="m -42.284354,97.365289 c 15.47908,4.504341 34.4104138,4.796251 50.9002449,-4.693658 C 25.105722,83.181724 23.401169,55.435086 45.156975,41.305769 66.912781,27.176452 111.84471,34.604056 135.93062,22.951376 c 24.08591,-11.65268 44.51689,-24.229153 51.88081,-43.848907 7.36392,-19.619754 6.85175,-40.082827 -8.69481,-57.150564 -15.54656,-17.067737 -42.41997,-16.831824 -78.31839,-19.51449 -35.898417,-2.682665 -105.176385,2.595119 -134.667935,12.834067 -29.49155,10.238948 -33.411072,14.784272 -43.712773,28.22311 -10.301701,13.438838 -13.74115,25.634575 -15.146369,47.1950372 -1.405219,21.5604618 3.480069,60.8754468 14.36508,78.7721688 10.885011,17.896722 20.600333,23.399146 36.079413,27.903491 z"
         id="path3745"
         sodipodi:nodetypes="zzzzzzzzzzzz" />
      <path
         style="fill:#000000;fill-opacity:0.05;stroke:none;stroke-width:1px;stroke-linecap:butt;stroke-linejoin:miter;stroke-opacity:1"
         d="M -8.0871392,74.934773 C 11.548646,66.042347 9.4243981,32.834538 27.325416,20.826504 43.583991,9.9202236 66.008574,14.476929 84.996839,9.7089076 116.60748,1.7713619 157.27545,-11.522653 153.484,-39.346625 150.08503,-64.290327 107.71866,-64.458692 82.558268,-65.292946 36.317106,-66.826185 -26.247855,-65.645383 -50.665464,-26.34683 c -17.449947,28.0845539 -6.552085,74.703687 17.217972,97.686881 6.137982,5.934795 17.582782,7.116938 25.3603528,3.594722 z"
         id="path3539"
         sodipodi:nodetypes="ssssssss" />
    </g>
    <g
       id="g3424"
       transform="matrix(0.88201168,-0.47122754,-0.47122754,-0.88201168,67.823745,246.74792)">
      <path
         style="fill:#ffffff;fill-opacity:0.07;stroke:none;stroke-width:1px;stroke-linecap:butt;stroke-linejoin:miter;stroke-opacity:1"
         d="m 269.86462,58.040366 c -19.50106,19.632448 -36.61264,7.508628 -48.08287,19.907108 -11.47023,12.39848 -2.2366,37.110856 -15.26474,46.879366 -13.02814,9.76851 -34.4285,15.33643 -48.37684,1.48761 -13.94834,-13.84882 -9.20505,-48.191624 1.63953,-69.515072 10.84458,-21.323448 48.0941,-27.274573 58.75852,-44.985328 10.66442,-17.7107553 -8.19394,-33.665065 8.29824,-49.34753 16.49218,-15.682465 65.6843,-36.625849 85.92413,-10.036418 20.23983,26.589431 -23.39491,85.977816 -42.89597,105.610264 z"
         id="path3087"
         sodipodi:nodetypes="zzzzzzzzz" />
      <path
         style="fill:#ffffff;fill-opacity:0.07;stroke:none;stroke-width:1px;stroke-linecap:butt;stroke-linejoin:miter;stroke-opacity:1"
         d="m 287.66067,-40.680342 c -11.24303,-6.397237 -29.91464,-1.750323 -39.44725,9.107156 -9.53261,10.857479 5.61676,30.0560677 -4.48058,45.987589 -10.09734,15.931521 -45.5815,22.107689 -57.50175,34.321511 -11.92025,12.213822 -16.66752,18.8422 -17.41526,30.858977 -0.74774,12.016777 -0.86092,33.334989 13.9764,34.049239 14.83732,0.71425 15.30239,-36.546968 24.42518,-46.269717 9.12279,-9.722749 13.67272,-9.262841 23.60245,-14.449917 9.92973,-5.187076 24.10829,-6.315026 36.2116,-15.886227 12.10331,-9.571201 29.412,-27.5358785 31.93029,-42.3514346 2.51829,-14.8155564 -0.058,-28.9699394 -11.30108,-35.3671764 z"
         id="path3141"
         sodipodi:nodetypes="zzzzzzzzzzz" />
    </g>
    <g
       id="g2972"
       transform="matrix(0.88201168,-0.47122754,-0.47122754,-0.88201168,67.823745,246.74792)">
      <path
         style="fill:#000000;fill-opacity:0.05;stroke:none;stroke-width:1px;stroke-linecap:butt;stroke-linejoin:miter;stroke-opacity:1"
         d="m -25.067684,205.35068 c 8.193064,-18.03751 22.8866715,-55.84439 45.735051,-61.52263 22.848379,-5.67824 44.592527,10.17277 56.161266,22.04307 11.568739,11.87031 0.679585,32.7879 16.332963,37.56974 15.653374,4.78184 32.215624,-35.58346 53.703814,-33.60927 21.4882,1.97419 51.19194,23.22312 48.71815,44.70122 -2.47378,21.4781 -44.99218,20.00351 -55.41239,31.22003 -10.42021,11.21652 7.0945,8.38248 -12.02318,25.57146 -19.11768,17.18898 -86.76354,52.2666 -119.0598914,41.22882 -32.2963516,-11.03778 -39.4341726,-46.12389 -43.0972106,-65.95388 -3.663039,-19.82999 0.748364,-23.21105 8.941428,-41.24856 z"
         id="path2223"
         sodipodi:nodetypes="zzzzzzzzzzz" />
      <path
         style="fill:#000000;fill-opacity:0.05;stroke:none;stroke-width:1px;stroke-linecap:butt;stroke-linejoin:miter;stroke-opacity:1"
         d="m 62.615647,292.57332 c 14.58408,-2.78428 38.452933,-11.7897 46.707713,-22.59032 8.25478,-10.80062 -3.77707,-18.21633 5.45522,-29.17408 9.23229,-10.95775 46.31775,-7.7111 52.77455,-19.58551 6.4568,-11.87441 1.3235,-18.75514 -5.398,-24.2121 -6.7215,-5.45696 -16.22359,-4.51229 -27.13798,-0.33737 -10.91439,4.17492 -19.44126,24.75516 -31.64422,29.07542 -12.20296,4.32026 -25.510448,5.25874 -34.629287,-2.17025 -9.118839,-7.42899 -4.765488,-24.52705 -9.434667,-34.61153 C 54.639797,178.8831 51.881625,165.9025 41.88779,163.56382 31.893955,161.22514 23.227894,169.7787 15.024046,178.58787 6.8201985,187.39704 2.0668967,205.8124 -2.58457,216.10754 c -4.6514667,10.29514 -10.344204,14.82102 -10.496116,24.15488 -0.151912,9.33386 4.4792128,18.8815 10.9341118,27.58584 6.454899,8.70434 16.3993442,17.60276 27.6608182,22.00436 11.261474,4.4016 22.517323,5.50498 37.101403,2.7207 z"
         id="path2831"
         sodipodi:nodetypes="zzzzzzzzzzzzzzzz" />
    </g>
    <circle
       style="fill:#ffffff;fill-opacity:0.08;stroke-width:4;stroke-linejoin:round"
       id="path3529"
       cx="128"
       cy="128"
       r="105.19595" />
    <circle
       style="fill:none;fill-opacity:0.08;stroke-width:4.77706;stroke-linejoin:round;stroke:#ffffff;stroke-opacity:0.08728448"
       id="path3529-5"
       cx="128"
       cy="128"
       r="125.63181" />
    <g
       id="g2109"
       transform="matrix(0.63359424,0.10824463,-0.10824463,0.63359424,93.456649,9.9435432)">
      <g
         id="g1423"
         transform="matrix(8.6878948,0,0,8.6878948,14.40033,102.49076)">
        <circle
           style="opacity:1;fill:none;fill-opacity:1;fill-rule:evenodd;stroke:#ffffff;stroke-width:2;stroke-linecap:butt;stroke-linejoin:round;stroke-miterlimit:4;stroke-dasharray:none;stroke-opacity:1"
           id="path1306"
           transform="matrix(0.379217,0,0,0.379217,0.434427,0.396893)"
           cx="19.950512"
           cy="20.049488"
           r="19.950512" />
        <path
           style="color:#000000;display:inline;overflow:visible;visibility:visible;fill:#ffffff;fill-opacity:0.351598;fill-rule:evenodd;stroke:none;stroke-width:2;marker:none"
           d="m 1.4095118,9.7105195 c 0,0 -0.54082329,-3.7983406 1.0564921,-5.9364793 1.5973152,-2.1381388 5.3327692,-2.6160756 5.3327692,-2.6160756 0,0 -2.4837351,1.1709323 -4.0810507,3.3090709 -1.5973153,2.1381389 -2.3082106,5.243484 -2.3082106,5.243484 z"
           id="path2767"
           sodipodi:nodetypes="cscsc"
           inkscape:connector-curvature="0" />
        <path
           style="color:#000000;display:inline;overflow:visible;visibility:visible;fill:#ffffff;fill-opacity:0.39726;fill-rule:evenodd;stroke:none;stroke-width:2;marker:none"
           d="m 1.6890046,7.631036 c 0,0 0.099986,-2.579673 0.9604171,-3.731431 C 3.5098524,2.7478473 5.593189,2.0990822 5.593189,2.0990822 c 0,0 -1.3850826,0.9962887 -2.2455136,2.1480464 C 2.4872446,5.3988866 1.6890046,7.631036 1.6890046,7.631036 Z"
           id="path3497"
           sodipodi:nodetypes="cscsc"
           inkscape:connector-curvature="0" />
        <path
           style="color:#000000;display:inline;overflow:visible;visibility:visible;opacity:1;fill:#000000;fill-opacity:0.219608;fill-rule:evenodd;stroke:none;stroke-width:2;stroke-linecap:butt;stroke-linejoin:miter;stroke-miterlimit:4;stroke-dasharray:none;stroke-dashoffset:0;stroke-opacity:1;marker:none;marker-start:none;marker-mid:none;marker-end:none"
           d="m 14.443078,6.1941895 c 0,0 0.540824,3.7983408 -1.056492,5.9364785 -1.597315,2.138139 -5.3327695,2.616076 -5.3327695,2.616076 0,0 2.7292715,-1.081647 4.3265865,-3.219785 1.597316,-2.1381387 2.062675,-5.3327695 2.062675,-5.3327695 z"
           id="path3499"
           sodipodi:nodetypes="cscsc" />
        <path
           style="color:#000000;display:inline;overflow:visible;visibility:visible;opacity:1;fill:#000000;fill-opacity:0.172549;fill-rule:evenodd;stroke:none;stroke-width:2;stroke-linecap:butt;stroke-linejoin:miter;stroke-miterlimit:4;stroke-dasharray:none;stroke-dashoffset:0;stroke-opacity:1;marker:none;marker-start:none;marker-mid:none;marker-end:none"
           d="m 14.163585,8.273673 c 0,0 -0.09999,2.579673 -0.960417,3.731431 -0.86043,1.151757 -2.943767,1.800522 -2.943767,1.800522 0,0 1.541332,-0.973967 2.401763,-2.125724 0.860431,-1.151759 1.502421,-3.406229 1.502421,-3.406229 z"
           id="path3501"
           sodipodi:nodetypes="cscsc" />
        <path
           style="color:#000000;display:inline;overflow:visible;visibility:visible;fill:#ffffff;fill-opacity:0.435294;fill-rule:evenodd;stroke:none;stroke-width:2;marker:none"
           d="m 2.2247189,5.6221072 c 0,0 -0.1009069,-0.4814587 0.7595242,-1.6332167 0.8604307,-1.1517577 1.3143031,-1.0415942 1.3143031,-1.0415942 0,0 -0.3136541,0.036467 -1.1740851,1.188225 -0.8604308,1.151758 -0.8997422,1.4865859 -0.8997422,1.4865859 z"
           id="path3497-1"
           sodipodi:nodetypes="cscsc"
           inkscape:connector-curvature="0" />
      </g>
      <path
         style="fill:#fffff7;fill-opacity:0.993925;stroke:none;stroke-width:1px;stroke-linecap:butt;stroke-linejoin:miter;stroke-opacity:1"
         d="m 73.355774,150.18142 7.197476,34.04002 13.064885,-3.13939 -6.833458,-34.45147 z"
         id="path1458"
         sodipodi:nodetypes="ccccc" />
      <path
         style="fill:#fffff7;fill-opacity:0.993925;stroke:none;stroke-width:1px;stroke-linecap:butt;stroke-linejoin:miter;stroke-opacity:1"
         d="m 108.15743,141.96538 7.19748,34.04002 13.06488,-3.13939 -6.83346,-34.45147 z"
         id="path1458-3"
         sodipodi:nodetypes="ccccc" />
    </g>
    <g
       id="g2538"
       transform="translate(534.67453)">
      <path
         style="fill:#000000;fill-opacity:0.0508005;stroke:none;stroke-width:1px;stroke-linecap:butt;stroke-linejoin:miter;stroke-opacity:1"
         d="m 107.01059,262.01693 c 0,0 27.79868,-16.57952 35.43351,-27.67049 7.63484,-11.09097 10.51932,-34.25212 10.51932,-34.25212 L 270.84912,59.774593 122.8894,40.60537 190.40981,-7.0217439 159.28448,-7.964816 -36.981053,59.837727 l 1.998602,13.230631 131.400722,16.02828 -28.48354,14.333512 c 0,0 -21.274169,0.27631 -30.870814,2.2689 -9.596645,1.99259 -15.879279,2.78937 -26.295533,9.18607 -10.41625441,6.3967 -32.802336,31.514 -32.802336,31.514 l -40.167374,11.58321 V -21.05734 H 301.11227 v 287.44759 z"
         id="path1908"
         sodipodi:nodetypes="czccccccccczzcccccc" />
      <path
         style="fill:#000000;fill-opacity:0.0508005;stroke:none;stroke-width:1px;stroke-linecap:butt;stroke-linejoin:miter;stroke-opacity:1"
         d="m 136.04353,258.09989 c 0,0 15.8943,-7.58811 21.1342,-12.80134 5.2399,-5.21323 7.90966,-9.52961 10.26089,-16.74665 2.35123,-7.21704 2.07449,-25.81892 2.07449,-25.81892 L 296.52483,54.574497 285.08649,49.13923 161.1077,34.245257 l 51.80106,-44.898159 -64.14621,-3.384486 -201.714559,67.968749 3.66211,25.043248 115.119977,11.809431 -4.870257,5.877511 c 0,0 -21.503983,0.123553 -32.096819,2.219587 -10.592836,2.096032 -19.1185019,4.454422 -30.9430801,10.311102 -11.8245779,5.85668 -38.4751669,26.21513 -38.4751669,26.21513 l -20.820313,2.97293 1.363003,-161.376952 362.456745,-0.696149 3.0692,151.549941 0.004,136.88337 z"
         id="path2116"
         sodipodi:nodetypes="czzcccccccccczzccccccc" />
      <path
         style="fill:#000000;fill-opacity:0.0508005;stroke:none;stroke-width:1px;stroke-linecap:butt;stroke-linejoin:miter;stroke-opacity:1"
         d="m 159.39891,261.69856 c 0,0 19.2359,-10.79485 23.93588,-17.65597 4.69998,-6.86112 4.77527,-12.86987 5.29739,-19.44741 0.52212,-6.57754 -2.08542,-19.32114 -2.08542,-19.32114 L 315.21692,59.671999 309.13035,40.15159 195.28695,27.137985 l 48.77735,-45.585107 -96.55244,-8.732295 -212.530565,75.611496 1.819064,37.391428 86.656093,5.985943 -23.56299153,5.214518 -57.75231447,21.872172 -25.044681,1.04961 11.186651,-148.492424 260.191224,-7.347281 145.38305,9.308397 -7.2585,209.170628 -35.62564,102.96059 z"
         id="path2364"
         sodipodi:nodetypes="czzcccccccccccccccccc" />
    </g>
    <path
       style="fill:none;stroke:#ffffff;stroke-width:4;stroke-linecap:butt;stroke-linejoin:miter;stroke-miterlimit:4;stroke-dasharray:none;stroke-opacity:1"
       d="m 116.99452,178.19131 -16.37468,67.51357"
       id="path3644" />
    <path
       style="fill:none;stroke:#ffffff;stroke-width:4;stroke-linecap:butt;stroke-linejoin:miter;stroke-miterlimit:4;stroke-dasharray:none;stroke-opacity:1"
       d="M 79.219258,140.45428 12.563456,160.03017"
       id="path3644-3"
       inkscape:transform-center-y="23.63377"
       inkscape:transform-center-x="84.896763" />
    <path
       style="fill:none;stroke:#ffffff;stroke-width:4;stroke-linecap:butt;stroke-linejoin:miter;stroke-miterlimit:4;stroke-dasharray:none;stroke-opacity:1"
       d="M 93.012853,88.871422 42.731737,40.933749"
       id="path3644-3-6"
       inkscape:transform-center-y="-61.70587"
       inkscape:transform-center-x="62.915825" />
    <path
       style="fill:none;stroke:#ffffff;stroke-width:4;stroke-linecap:butt;stroke-linejoin:miter;stroke-miterlimit:4;stroke-dasharray:none;stroke-opacity:1"
       d="M 144.58172,75.025599 160.9564,7.5120364"
       id="path3644-3-6-7"
       inkscape:transform-center-y="-85.339638"
       inkscape:transform-center-x="-21.98094" />
    <path
       style="fill:none;stroke:#ffffff;stroke-width:4;stroke-linecap:butt;stroke-linejoin:miter;stroke-miterlimit:4;stroke-dasharray:none;stroke-opacity:1"
       d="m 182.35699,112.76263 66.6558,-19.575888"
       id="path3644-3-6-7-5"
       inkscape:transform-center-y="-23.633769"
       inkscape:transform-center-x="-84.89677" />
    <path
       style="fill:none;stroke:#ffffff;stroke-width:4;stroke-linecap:butt;stroke-linejoin:miter;stroke-miterlimit:4;stroke-dasharray:none;stroke-opacity:1"
       d="m 168.56339,164.34549 50.28112,47.93768"
       id="path3644-3-6-7-5-3"
       inkscape:transform-center-y="61.705875"
       inkscape:transform-center-x="-62.91583" />
  </g>
</svg>
