<?xml version="1.0" encoding="UTF-8" standalone="no"?>
<!-- Created with Inkscape (http://www.inkscape.org/) -->

<svg
   width="256"
   height="256"
   id="svg2"
   sodipodi:version="0.32"
   inkscape:version="1.1.2 (0a00cf5339, 2022-02-04)"
   sodipodi:docname="dotsweep_steam_achievement_goodgame!.svg"
   inkscape:export-filename="g:\newcode\java\dc\rev2\ball0700.png"
   inkscape:export-xdpi="90.000000"
   inkscape:export-ydpi="90.000000"
   version="1.1"
   xmlns:inkscape="http://www.inkscape.org/namespaces/inkscape"
   xmlns:sodipodi="http://sodipodi.sourceforge.net/DTD/sodipodi-0.dtd"
   xmlns="http://www.w3.org/2000/svg"
   xmlns:svg="http://www.w3.org/2000/svg"
   xmlns:rdf="http://www.w3.org/1999/02/22-rdf-syntax-ns#"
   xmlns:cc="http://creativecommons.org/ns#"
   xmlns:dc="http://purl.org/dc/elements/1.1/">
  <defs
     id="defs4" />
  <sodipodi:namedview
     id="base"
     pagecolor="#ffffff"
     bordercolor="#666666"
     borderopacity="1.0"
     inkscape:pageopacity="0.0"
     inkscape:pageshadow="2"
     inkscape:zoom="1.979899"
     inkscape:cx="215.66757"
     inkscape:cy="109.85409"
     inkscape:document-units="px"
     inkscape:current-layer="layer1"
     borderlayer="true"
     inkscape:showpageshadow="false"
     inkscape:window-width="1680"
     inkscape:window-height="986"
     inkscape:window-x="0"
     inkscape:window-y="0"
     showgrid="false"
     inkscape:window-maximized="1"
     inkscape:pagecheckerboard="0"
     inkscape:snap-global="false" />
  <metadata
     id="metadata7">
    <rdf:RDF>
      <cc:Work
         rdf:about="">
        <dc:format>image/svg+xml</dc:format>
        <dc:type
           rdf:resource="http://purl.org/dc/dcmitype/StillImage" />
      </cc:Work>
    </rdf:RDF>
  </metadata>
  <g
     inkscape:label="Layer 1"
     inkscape:groupmode="layer"
     id="layer1">
    <rect
       style="fill:#2f97da;fill-opacity:1;stroke:none"
       id="rect4477"
       width="466.67209"
       height="414.73792"
       x="-103.38654"
       y="-318.23059"
       transform="matrix(-0.00228683,0.99999739,-0.99999912,-0.00132987,0,0)" />
    <g
       id="g5116">
      <path
         style="fill:#000000;stroke:none;stroke-width:1px;stroke-linecap:butt;stroke-linejoin:miter;stroke-opacity:1;fill-opacity:0.05"
         d="M 92.308608,-13.459494 C 103.21711,4.2477199 93.555314,29.056534 81.919031,37.422995 70.282748,45.789456 59.015299,20.244777 48.116407,33.256116 37.217515,46.267455 47.57356,87.241793 68.074812,98.030175 88.576064,108.81856 117.45362,71.099184 136.049,76.773567 c 18.59538,5.674383 29.87162,16.901646 28.40265,35.457933 -1.46897,18.55629 -26.64957,37.54365 -49.04172,44.54931 -22.392147,7.00566 -54.730831,-15.68402 -73.881217,-9.73456 -19.150386,5.94946 -17.255164,27.67533 -34.0235952,30.65971 -16.7684316,2.98438 -34.0880308,5.80262 -52.3444478,-20.97842 -18.256417,-26.78104 -17.427085,-104.740241 -0.972666,-138.075231 16.454419,-33.33499 41.985802,-46.211667 67.812408,-51.200134 25.826606,-4.988467 59.399695,1.381117 70.308196,19.088331 z"
         id="path4739"
         sodipodi:nodetypes="zzzzzzzzzzzzz" />
      <path
         style="fill:#000000;stroke:none;stroke-width:1px;stroke-linecap:butt;stroke-linejoin:miter;stroke-opacity:1;fill-opacity:0.05"
         d="m 18.026882,-16.030253 c 15.380901,-3.052816 41.083746,-3.801597 49.45407,4.348391 8.370324,8.1499876 8.536559,13.0322679 2.334005,20.3174825 C 63.612403,15.920835 43.610836,1.5552215 32.897038,10.328415 22.18324,19.101608 20.304798,38.29075 21.738009,55.086854 c 1.433211,16.796104 8.720027,40.236848 22.160222,50.353736 13.440195,10.11689 29.850008,8.16745 45.506188,6.14773 15.656181,-2.01972 32.641751,-23.243463 45.115541,-18.591151 12.47379,4.652312 19.70166,14.859671 13.96457,27.769331 -5.73709,12.90966 -33.42589,13.55689 -51.756505,14.23881 -18.330619,0.68192 -39.971458,-14.18647 -55.321635,-10.87492 -15.350177,3.31155 -20.805401,17.23331 -30.817545,21.957 -10.01214345,4.7237 -18.1760132,10.48246 -27.603602,7.42028 -9.427589,-3.06218 -12.921447,-8.72326 -19.425707,-24.01874 -6.50426,-15.29548 -11.43717,-46.795581 -8.519216,-68.305647 C -42.041726,39.673217 -33.328356,17.472672 -21.400634,4.4746601 -9.472912,-8.523352 2.6459806,-12.977437 18.026882,-16.030253 Z"
         id="path4793"
         sodipodi:nodetypes="zzzzzzzzzzzzzzzzz" />
    </g>
    <g
       id="g2109"
       transform="matrix(0.92749252,0.15845486,-0.15845486,0.92749252,77.956627,-41.032879)">
      <g
         id="g1423"
         transform="matrix(8.6878948,0,0,8.6878948,14.40033,102.49076)">
        <circle
           style="opacity:1;fill:none;fill-opacity:1;fill-rule:evenodd;stroke:#ffffff;stroke-width:2;stroke-linecap:butt;stroke-linejoin:round;stroke-miterlimit:4;stroke-dasharray:none;stroke-opacity:1"
           id="path1306"
           transform="matrix(0.379217,0,0,0.379217,0.434427,0.396893)"
           cx="19.950512"
           cy="20.049488"
           r="19.950512" />
        <path
           style="color:#000000;display:inline;overflow:visible;visibility:visible;fill:#ffffff;fill-opacity:0.351598;fill-rule:evenodd;stroke:none;stroke-width:2;marker:none"
           d="m 1.4095118,9.7105195 c 0,0 -0.54082329,-3.7983406 1.0564921,-5.9364793 1.5973152,-2.1381388 5.3327692,-2.6160756 5.3327692,-2.6160756 0,0 -2.4837351,1.1709323 -4.0810507,3.3090709 -1.5973153,2.1381389 -2.3082106,5.243484 -2.3082106,5.243484 z"
           id="path2767"
           sodipodi:nodetypes="cscsc"
           inkscape:connector-curvature="0" />
        <path
           style="color:#000000;display:inline;overflow:visible;visibility:visible;fill:#ffffff;fill-opacity:0.39726;fill-rule:evenodd;stroke:none;stroke-width:2;marker:none"
           d="m 1.6890046,7.631036 c 0,0 0.099986,-2.579673 0.9604171,-3.731431 C 3.5098524,2.7478473 5.593189,2.0990822 5.593189,2.0990822 c 0,0 -1.3850826,0.9962887 -2.2455136,2.1480464 C 2.4872446,5.3988866 1.6890046,7.631036 1.6890046,7.631036 Z"
           id="path3497"
           sodipodi:nodetypes="cscsc"
           inkscape:connector-curvature="0" />
        <path
           style="color:#000000;display:inline;overflow:visible;visibility:visible;opacity:1;fill:#000000;fill-opacity:0.219608;fill-rule:evenodd;stroke:none;stroke-width:2;stroke-linecap:butt;stroke-linejoin:miter;stroke-miterlimit:4;stroke-dasharray:none;stroke-dashoffset:0;stroke-opacity:1;marker:none;marker-start:none;marker-mid:none;marker-end:none"
           d="m 14.443078,6.1941895 c 0,0 0.540824,3.7983408 -1.056492,5.9364785 -1.597315,2.138139 -5.3327695,2.616076 -5.3327695,2.616076 0,0 2.7292715,-1.081647 4.3265865,-3.219785 1.597316,-2.1381387 2.062675,-5.3327695 2.062675,-5.3327695 z"
           id="path3499"
           sodipodi:nodetypes="cscsc" />
        <path
           style="color:#000000;display:inline;overflow:visible;visibility:visible;opacity:1;fill:#000000;fill-opacity:0.172549;fill-rule:evenodd;stroke:none;stroke-width:2;stroke-linecap:butt;stroke-linejoin:miter;stroke-miterlimit:4;stroke-dasharray:none;stroke-dashoffset:0;stroke-opacity:1;marker:none;marker-start:none;marker-mid:none;marker-end:none"
           d="m 14.163585,8.273673 c 0,0 -0.09999,2.579673 -0.960417,3.731431 -0.86043,1.151757 -2.943767,1.800522 -2.943767,1.800522 0,0 1.541332,-0.973967 2.401763,-2.125724 0.860431,-1.151759 1.502421,-3.406229 1.502421,-3.406229 z"
           id="path3501"
           sodipodi:nodetypes="cscsc" />
        <path
           style="color:#000000;display:inline;overflow:visible;visibility:visible;fill:#ffffff;fill-opacity:0.435294;fill-rule:evenodd;stroke:none;stroke-width:2;marker:none"
           d="m 2.2247189,5.6221072 c 0,0 -0.1009069,-0.4814587 0.7595242,-1.6332167 0.8604307,-1.1517577 1.3143031,-1.0415942 1.3143031,-1.0415942 0,0 -0.3136541,0.036467 -1.1740851,1.188225 -0.8604308,1.151758 -0.8997422,1.4865859 -0.8997422,1.4865859 z"
           id="path3497-1"
           sodipodi:nodetypes="cscsc"
           inkscape:connector-curvature="0" />
      </g>
    </g>
    <g
       id="g2538"
       transform="translate(534.67453)">
      <path
         style="fill:#000000;fill-opacity:0.0508005;stroke:none;stroke-width:1px;stroke-linecap:butt;stroke-linejoin:miter;stroke-opacity:1"
         d="m 107.01059,262.01693 c 0,0 27.79868,-16.57952 35.43351,-27.67049 7.63484,-11.09097 10.51932,-34.25212 10.51932,-34.25212 L 270.84912,59.774593 122.8894,40.60537 190.40981,-7.0217439 159.28448,-7.964816 -36.981053,59.837727 l 1.998602,13.230631 131.400722,16.02828 -28.48354,14.333512 c 0,0 -21.274169,0.27631 -30.870814,2.2689 -9.596645,1.99259 -15.879279,2.78937 -26.295533,9.18607 -10.41625441,6.3967 -32.802336,31.514 -32.802336,31.514 l -40.167374,11.58321 V -21.05734 H 301.11227 v 287.44759 z"
         id="path1908"
         sodipodi:nodetypes="czccccccccczzcccccc" />
      <path
         style="fill:#000000;fill-opacity:0.0508005;stroke:none;stroke-width:1px;stroke-linecap:butt;stroke-linejoin:miter;stroke-opacity:1"
         d="m 136.04353,258.09989 c 0,0 15.8943,-7.58811 21.1342,-12.80134 5.2399,-5.21323 7.90966,-9.52961 10.26089,-16.74665 2.35123,-7.21704 2.07449,-25.81892 2.07449,-25.81892 L 296.52483,54.574497 285.08649,49.13923 161.1077,34.245257 l 51.80106,-44.898159 -64.14621,-3.384486 -201.714559,67.968749 3.66211,25.043248 115.119977,11.809431 -4.870257,5.877511 c 0,0 -21.503983,0.123553 -32.096819,2.219587 -10.592836,2.096032 -19.1185019,4.454422 -30.9430801,10.311102 -11.8245779,5.85668 -38.4751669,26.21513 -38.4751669,26.21513 l -20.820313,2.97293 1.363003,-161.376952 362.456745,-0.696149 3.0692,151.549941 0.004,136.88337 z"
         id="path2116"
         sodipodi:nodetypes="czzcccccccccczzccccccc" />
      <path
         style="fill:#000000;fill-opacity:0.0508005;stroke:none;stroke-width:1px;stroke-linecap:butt;stroke-linejoin:miter;stroke-opacity:1"
         d="m 159.39891,261.69856 c 0,0 19.2359,-10.79485 23.93588,-17.65597 4.69998,-6.86112 4.77527,-12.86987 5.29739,-19.44741 0.52212,-6.57754 -2.08542,-19.32114 -2.08542,-19.32114 L 315.21692,59.671999 309.13035,40.15159 195.28695,27.137985 l 48.77735,-45.585107 -96.55244,-8.732295 -212.530565,75.611496 1.819064,37.391428 86.656093,5.985943 -23.56299153,5.214518 -57.75231447,21.872172 -25.044681,1.04961 11.186651,-148.492424 260.191224,-7.347281 145.38305,9.308397 -7.2585,209.170628 -35.62564,102.96059 z"
         id="path2364"
         sodipodi:nodetypes="czzcccccccccccccccccc" />
    </g>
    <path
       style="fill:#ffffff;fill-opacity:1;stroke:none;stroke-width:0.763292px;stroke-linecap:butt;stroke-linejoin:miter;stroke-opacity:1"
       d="m 171.95461,112.97046 c 0,0 -12.02551,-8.42455 -18.77439,-8.87568 -6.74888,-0.45112 -19.24663,6.18021 -19.24663,6.18021 l 1.37878,2.66779 c 0,0 11.01587,-4.41968 17.21943,-4.06478 6.20355,0.35489 18.64533,6.69604 18.64533,6.69604 z"
       id="path9533-7"
       sodipodi:nodetypes="czcczcc" />
    <path
       style="fill:#ffffff;fill-opacity:1;stroke:none;stroke-width:0.763292px;stroke-linecap:butt;stroke-linejoin:miter;stroke-opacity:1"
       d="m 87.080062,112.97046 c 0,0 12.025513,-8.42455 18.774388,-8.87568 6.74888,-0.45112 19.24664,6.18021 19.24664,6.18021 l -1.37879,2.66779 c 0,0 -11.01587,-4.41968 -17.21943,-4.06478 -6.20355,0.35489 -18.645323,6.69604 -18.645323,6.69604 z"
       id="path9533-7-8"
       sodipodi:nodetypes="czcczcc" />
    <path
       style="fill:none;stroke:#ffffff;stroke-width:3.35762;stroke-linecap:butt;stroke-linejoin:miter;stroke-miterlimit:4;stroke-dasharray:none;stroke-opacity:1"
       d="M 74.633425,187.80812 28.851293,209.47287 59.952185,159.86305 26.372663,166.4264 55.328784,146.79328 25.436854,141.08227 53.701656,134.31885 3.6013129,118.30818 52.420189,119.9413 23.48936,98.569337 57.886661,105.11642 26.428306,62.58071 75.363525,77.169726 67.885484,53.487989 90.970458,67.707768 90.120642,18.380983 115.9085,56.469556 l 4.68748,-30.093811 14.7959,29.243096 15.72327,-42.555229 10.14046,46.032911 31.73319,-31.305632 -10.14889,43.66132 17.24418,-10.037777 -5.88632,21.833913 42.88366,-12.925 -32.20363,33.068873 29.64743,4.08114 -24.52325,10.90639 29.2259,9.45709 -31.10932,5.24417 30.07235,22.72528 -29.01514,-1.05078 28.95275,29.2431 -40.17571,-7.23514 12.33582,44.08424 -34.54905,-25.606 -0.67616,29.66113 -14.4907,-22.96116 -8.08336,30.53625 -12.71183,-25.84187 -17.83264,40.40486 -7.56403,-42.73578 -21.830487,23.17099 0.490667,-29.15852 -33.684062,32.36943 z"
       id="path10090"
       sodipodi:nodetypes="ccccccccccccccccccccccccccccccccccccccccccccccc" />
    <path
       style="fill:#ffffff;stroke:none;stroke-width:1px;stroke-linecap:butt;stroke-linejoin:miter;stroke-opacity:1;fill-opacity:0.25"
       d="m 94.058618,67.080443 -1.225204,-39.631718 2.844013,5.296396 2.233385,30.811626 z"
       id="path10492" />
    <path
       style="fill:#ffffff;stroke:none;stroke-width:1px;stroke-linecap:butt;stroke-linejoin:miter;stroke-opacity:1;fill-opacity:0.25"
       d="m 118.6002,59.263598 3.2386,-23.410088 1.35246,4.57824 -2.11994,17.599738 z"
       id="path10494" />
    <path
       style="fill:#ffffff;stroke:none;stroke-width:1px;stroke-linecap:butt;stroke-linejoin:miter;stroke-opacity:1;fill-opacity:0.25"
       d="m 137.15682,59.088005 13.10337,-35.079125 0.63628,5.259896 -10.19623,29.385179 z"
       id="path10496" />
    <path
       style="fill:#ffffff;stroke:none;stroke-width:1px;stroke-linecap:butt;stroke-linejoin:miter;stroke-opacity:1;fill-opacity:0.25"
       d="m 163.43558,62.089855 24.3719,-24.959843 -4.57035,7.68367 -16.77208,18.631593 z"
       id="path10498" />
    <path
       style="fill:#ffffff;stroke:none;stroke-width:1px;stroke-linecap:butt;stroke-linejoin:miter;stroke-opacity:1;fill-opacity:0.25"
       d="m 182.14708,75.719023 12.92087,-8.057545 -3.50396,4.340499 -7.96383,5.353611 z"
       id="path10500" />
    <path
       style="fill:#ffffff;stroke:none;stroke-width:1px;stroke-linecap:butt;stroke-linejoin:miter;stroke-opacity:1;fill-opacity:0.25"
       d="m 78.205218,78.154297 -5.874721,-18.532366 3.064314,3.598633 4.874442,13.457729 z"
       id="path10502" />
    <path
       style="fill:#ffffff;stroke:none;stroke-width:1px;stroke-linecap:butt;stroke-linejoin:miter;stroke-opacity:1;fill-opacity:0.25"
       d="m 193.30427,86.47461 34.10784,-10.634766 -4.57101,3.178711 -27.05148,9.65332 z"
       id="path10504" />
    <path
       style="fill:#ffffff;stroke:none;stroke-width:1px;stroke-linecap:butt;stroke-linejoin:miter;stroke-opacity:1;fill-opacity:0.25"
       d="M 60.896345,104.73493 33.643276,67.449777 38.237305,70.181362 62.601842,101.76549 Z"
       id="path10506" />
    <path
       style="fill:#000000;stroke:none;stroke-width:1px;stroke-linecap:butt;stroke-linejoin:miter;stroke-opacity:1;fill-opacity:0.2"
       d="M 40.747768,69.686803 76.331613,79.990235 74.516602,81.497629 43.184989,71.87221 Z"
       id="path10508" />
    <path
       style="fill:#000000;stroke:none;stroke-width:1px;stroke-linecap:butt;stroke-linejoin:miter;stroke-opacity:1;fill-opacity:0.2"
       d="M 90.880302,70.546875 75,60.722657 l 3.461914,3.909737 10.525252,6.570173 z"
       id="path10510" />
    <path
       style="fill:#000000;stroke:none;stroke-width:1px;stroke-linecap:butt;stroke-linejoin:miter;stroke-opacity:1;fill-opacity:0.2"
       d="M 115.23856,60.788226 97.120536,33.90625 l 0.0021,3.591658 15.431084,23.009905 z"
       id="path10512" />
    <path
       style="fill:#000000;stroke:none;stroke-width:1px;stroke-linecap:butt;stroke-linejoin:miter;stroke-opacity:1;fill-opacity:0.2"
       d="M 133.68513,59.345006 123.2115,37.204241 131.03585,58.691407 Z"
       id="path10514" />
    <path
       style="fill:#000000;stroke:none;stroke-width:1px;stroke-linecap:butt;stroke-linejoin:miter;stroke-opacity:1;fill-opacity:0.2"
       d="m 158.75977,61.976144 -6.95034,-31.673409 -1.48786,4.052036 6.63156,26.200475 z"
       id="path10516" />
    <path
       style="fill:#000000;stroke:none;stroke-width:1px;stroke-linecap:butt;stroke-linejoin:miter;stroke-opacity:1;fill-opacity:0.2"
       d="m 179.40081,72.652763 8.47168,-32.631139 -3.04967,5.550363 -6.89104,25.029297 z"
       id="path10518" />
    <path
       style="fill:#000000;stroke:none;stroke-width:1px;stroke-linecap:butt;stroke-linejoin:miter;stroke-opacity:1;fill-opacity:0.2"
       d="m 195.13208,68.36089 -2.26101,4.07711 -3.54737,11.438695 1.82547,1.166509 4.93782,-17.146451 z"
       id="path10520" />
    <path
       style="fill:#000000;stroke:none;stroke-width:1px;stroke-linecap:butt;stroke-linejoin:miter;stroke-opacity:1;fill-opacity:0.2"
       d="m 227.02833,77.465087 -25.57688,26.222043 0.0784,-3.55181 20.95722,-19.653093 z"
       id="path10522" />
    <path
       style="fill:#000000;stroke:none;stroke-width:1px;stroke-linecap:butt;stroke-linejoin:miter;stroke-opacity:1;fill-opacity:0.2"
       d="m 201.99079,105.21171 24.41965,3.42075 -22.92376,10.12835 25.14997,8.10129 -26.28592,4.9993 28.15011,21.17466 -26.9479,-0.80217 27.14182,27.83552 -36.13979,-6.29848 11.44496,40.83077 -32.3291,-23.88672 -0.89181,26.21234 -13.00154,-20.84194 -8.2666,29.58392 -11.86558,-24.53544 -16.79443,38.05873 -6.86175,-40.20612 -21.11677,22.73263 0.641741,-28.82254 -30.294713,29.34291 1.484375,-2.89725 29.510673,-28.44064 -0.07778,27.87144 20.155204,-21.09515 7.04869,37.92411 16.38323,-36.39683 11.48298,24.05169 8.30846,-28.95194 12.58126,19.64425 0.71917,-24.56299 1.31487,-0.12277 30.34843,23.08176 -11.28418,-40.11963 35.1974,6.56145 -26.75677,-27.24365 25.6965,0.59256 -26.5182,-20.49281 24.35581,-4.85317 -24.10051,-7.96526 21.96428,-9.66309 -19.85839,-2.7846 z"
       id="path10524" />
    <path
       style="fill:#ffffff;stroke:none;stroke-width:1px;stroke-linecap:butt;stroke-linejoin:miter;stroke-opacity:1;fill-opacity:0.25"
       d="m 60.753697,107.77658 -28.356933,-5.26193 4.015415,1.96219 24.990584,4.39314 z"
       id="path10526" />
    <path
       style="fill:#ffffff;stroke:none;stroke-width:1px;stroke-linecap:butt;stroke-linejoin:miter;stroke-opacity:1;fill-opacity:0.25"
       d="m 57.155064,122.22238 -38.38344,-1.32673 5.368304,1.15374 33.944266,1.38567 z"
       id="path10528" />
    <path
       style="fill:#ffffff;stroke:none;stroke-width:1px;stroke-linecap:butt;stroke-linejoin:miter;stroke-opacity:1;fill-opacity:0.25"
       d="m 59.830846,135.04116 -23.785575,5.59396 3.283691,0.19775 20.550712,-4.72133 z"
       id="path10530" />
    <path
       style="fill:#ffffff;stroke:none;stroke-width:1px;stroke-linecap:butt;stroke-linejoin:miter;stroke-opacity:1;fill-opacity:0.25"
       d="m 59.710519,146.57959 -22.759835,15.31669 3.752441,-1.0247 19.967565,-13.55224 z"
       id="path10532" />
    <path
       style="fill:#ffffff;stroke:none;stroke-width:1px;stroke-linecap:butt;stroke-linejoin:miter;stroke-opacity:1;fill-opacity:0.25"
       d="m 63.953335,158.02246 -28.585031,45.61489 2.944684,-2.31097 26.306851,-42.50628 z"
       id="path10534" />
    <path
       style="fill:#ffffff;stroke:none;stroke-width:1px;stroke-linecap:butt;stroke-linejoin:miter;stroke-opacity:1;fill-opacity:0.25"
       d="m 66.845355,217.02532 11.564244,-32.72286 0.496303,2.56522 -10.415039,28.6213 z"
       id="path10536" />
    <path
       style="fill:#000000;stroke:none;stroke-width:1px;stroke-linecap:butt;stroke-linejoin:miter;stroke-opacity:1;fill-opacity:0.2"
       d="m 77.1024,183.8215 -37.780413,18.05036 2.426758,-2.37967 35.471191,-17.03439 z"
       id="path10538" />
    <path
       style="fill:#000000;stroke:none;stroke-width:1px;stroke-linecap:butt;stroke-linejoin:miter;stroke-opacity:1;fill-opacity:0.2"
       d="m 62.982701,157.02741 -20.678711,4.26688 2.84947,-1.64097 18.700126,-3.9774 z"
       id="path10540" />
    <path
       style="fill:#000000;stroke:none;stroke-width:1px;stroke-linecap:butt;stroke-linejoin:miter;stroke-opacity:1;fill-opacity:0.2"
       d="m 59.618792,145.31459 -19.100865,-3.61467 3.336007,-0.65988 15.630232,3.19371 z"
       id="path10542" />
    <path
       style="fill:#000000;stroke:none;stroke-width:1px;stroke-linecap:butt;stroke-linejoin:miter;stroke-opacity:1;fill-opacity:0.2"
       d="m 59.756906,133.81313 -33.401577,-10.56676 4.127372,0.0293 29.705636,9.42522 z"
       id="path10544" />
    <path
       style="fill:#000000;stroke:none;stroke-width:1px;stroke-linecap:butt;stroke-linejoin:miter;stroke-opacity:1;fill-opacity:0.2"
       d="m 57.877721,121.03306 -20.538854,-15.45549 2.52581,1.00655 18.558872,13.3381 z"
       id="path10546" />
    <path
       style="fill:#ffffff;stroke:none;stroke-width:1px;stroke-linecap:butt;stroke-linejoin:miter;stroke-opacity:1;fill-opacity:0.06"
       d="m 212.42798,-5.9346462 c 10.01707,6.74042034 22.62435,14.3457847 29.52526,35.7637412 6.90091,21.417956 6.24372,64.258671 -5.91097,88.439645 -12.15469,24.18097 -37.64764,38.56103 -56.11871,47.84611 -18.47107,9.28508 -38.30978,2.71412 -49.02002,11.24979 -10.71024,8.53567 -17.70146,16.41009 -13.88368,28.69662 3.81778,12.28653 22.12317,19.28209 39.38017,22.42459 17.257,3.1425 43.23443,-0.88065 59.18665,-9.39323 15.95222,-8.51258 17.96856,-18.9228 33.02331,-35.60393 15.05475,-16.68113 47.27642,-36.94852 56.91578,-64.81747 9.63936,-27.868946 1.23441,-58.285885 -4.9462,-90.538866 -6.18061,-32.252981 -7.78746,-83.058058 -33.87168,-100.827824 -26.08422,-17.769766 -67.64403,-12.985883 -82.89959,4.202392 -15.25556,17.188275 -4.60429,44.162087 3.74862,54.757371 8.35291,10.5952839 14.85399,1.06064 24.87106,7.8010608 z"
       id="path5151"
       sodipodi:nodetypes="zzzzzzzzzzzzzzz" />
    <path
       style="fill:#ffffff;stroke:none;stroke-width:1px;stroke-linecap:butt;stroke-linejoin:miter;stroke-opacity:1;fill-opacity:0.06"
       d="m 198.64295,172.80711 c 19.43959,-11.71314 43.29351,-21.2175 54.31543,-41.05717 13.59568,-24.47248 10.23081,-55.76951 7.60376,-83.641425 C 259.02034,31.750637 256.98597,13.770241 247.00597,0.71815533 238.20529,-10.791592 220.90506,-12.453666 209.80987,-21.77155 c -4.80857,-4.038298 -11.42817,-7.9876 -12.38621,-14.193432 -1.6486,-10.678995 3.54834,-24.399836 12.95639,-29.714663 8.90482,-5.030542 21.06486,-0.122477 30.41901,4.012989 11.84696,5.237533 22.98224,13.991506 29.68704,25.074275 14.93193,24.681877 15.06825,55.872134 18.77661,84.479925 3.00533,23.184338 9.26445,47.631175 2.7424,70.081306 -4.58507,15.78267 -16.32482,29.02458 -28.02581,40.56591 -12.19926,12.0328 -30.36612,16.73113 -42.69078,28.63546 -5.61629,5.42475 -7.31063,14.52401 -13.71598,18.98968 -10.86046,7.57168 -25.01723,10.40622 -38.25361,10.68552 -11.60738,0.24492 -27.39673,1.66302 -33.91114,-7.94706 -3.6502,-5.38479 -1.85585,-14.86102 2.90025,-19.29943 7.20641,-6.72504 19.94702,0.15598 29.47593,-2.36558 10.97702,-2.90476 21.1332,-8.56606 30.85898,-14.42624 z"
       id="path5205"
       sodipodi:nodetypes="sssssssssssssssssss" />
    <path
       style="fill:#000000;stroke:none;stroke-width:1px;stroke-linecap:butt;stroke-linejoin:miter;stroke-opacity:1;fill-opacity:0.05"
       d="m -5.4946774,232.66457 c 15.1882723,8.1837 34.0130414,8.89909 51.2099994,7.51301 17.64454,-1.42216 32.930448,-16.3071 50.62995,-16.02433 18.789478,0.30018 38.304388,7.23291 53.177038,18.71938 10.58874,8.17791 26.31732,20.44986 22.46405,33.26204 -9.92885,33.01359 -61.11394,38.11675 -95.55806,39.5597 -30.156771,1.26334 -62.518961,-8.88785 -86.2674226,-27.51679 -16.7300844,-13.12353 -38.6541024,-33.83023 -33.2995214,-54.40816 2.477877,-9.52261 16.021503,-16.09132 25.727323,-14.47359 5.888409,0.98146 6.661327,10.53709 11.9166436,13.36874 z"
       id="path5501"
       sodipodi:nodetypes="ssssssssss" />
    <path
       style="fill:#000000;stroke:none;stroke-width:1px;stroke-linecap:butt;stroke-linejoin:miter;stroke-opacity:1;fill-opacity:0.05"
       d="m 31.152947,253.01559 c 13.161315,-0.38868 37.01158,-3.53553 48.469566,-6.63899 11.457986,-3.10346 8.715876,-8.58944 20.603557,-8.53894 11.88768,0.0505 37.83193,9.74706 45.12738,19.15343 7.29545,9.40637 9.21767,12.18548 3.34613,22.14839 -5.87154,9.96291 -24.8754,12.73052 -44.04422,16.36565 -19.168823,3.63513 -50.339721,6.17903 -70.063554,1.33569 -19.723833,-4.84334 -35.7945888,-13.40611 -45.42727,-24.85527 -9.632681,-11.44916 -20.878835,-29.02261 -12.265857,-35.95709 8.612978,-6.93448 14.9899457,11.69568 24.263391,14.67088 9.273445,2.9752 16.829562,2.70493 29.990877,2.31625 z"
       id="path5555"
       sodipodi:nodetypes="zzzzzzzzzzz" />
  </g>
</svg>
