<?xml version="1.0" encoding="UTF-8" standalone="no"?>
<!-- Created with Inkscape (http://www.inkscape.org/) -->

<svg
   width="256"
   height="256"
   id="svg2"
   sodipodi:version="0.32"
   inkscape:version="1.1.2 (0a00cf5339, 2022-02-04)"
   sodipodi:docname="dotsweep_steam_achievement_bobandweave.svg"
   inkscape:export-filename="g:\newcode\java\dc\rev2\ball0700.png"
   inkscape:export-xdpi="90.000000"
   inkscape:export-ydpi="90.000000"
   version="1.1"
   xmlns:inkscape="http://www.inkscape.org/namespaces/inkscape"
   xmlns:sodipodi="http://sodipodi.sourceforge.net/DTD/sodipodi-0.dtd"
   xmlns="http://www.w3.org/2000/svg"
   xmlns:svg="http://www.w3.org/2000/svg"
   xmlns:rdf="http://www.w3.org/1999/02/22-rdf-syntax-ns#"
   xmlns:cc="http://creativecommons.org/ns#"
   xmlns:dc="http://purl.org/dc/elements/1.1/">
  <defs
     id="defs4" />
  <sodipodi:namedview
     id="base"
     pagecolor="#ffffff"
     bordercolor="#666666"
     borderopacity="1.0"
     inkscape:pageopacity="0.0"
     inkscape:pageshadow="2"
     inkscape:zoom="0.49497475"
     inkscape:cx="197.9899"
     inkscape:cy="312.13713"
     inkscape:document-units="px"
     inkscape:current-layer="layer1"
     borderlayer="true"
     inkscape:showpageshadow="false"
     inkscape:window-width="1680"
     inkscape:window-height="986"
     inkscape:window-x="0"
     inkscape:window-y="0"
     showgrid="false"
     inkscape:window-maximized="1"
     inkscape:pagecheckerboard="0"
     inkscape:snap-global="false" />
  <metadata
     id="metadata7">
    <rdf:RDF>
      <cc:Work
         rdf:about="">
        <dc:format>image/svg+xml</dc:format>
        <dc:type
           rdf:resource="http://purl.org/dc/dcmitype/StillImage" />
      </cc:Work>
    </rdf:RDF>
  </metadata>
  <g
     inkscape:label="Layer 1"
     inkscape:groupmode="layer"
     id="layer1">
    <rect
       style="fill:#2f97da;fill-opacity:1;stroke:none"
       id="rect4477"
       width="466.67209"
       height="414.73792"
       x="-103.38654"
       y="-318.23059"
       transform="matrix(-0.00228683,0.99999739,-0.99999912,-0.00132987,0,0)" />
    <g
       id="g3771">
      <path
         style="fill:#ffffff;stroke:none;stroke-width:1px;stroke-linecap:butt;stroke-linejoin:miter;stroke-opacity:1;fill-opacity:0.05080052"
         d="M -18.28683,92.643694 C -5.1573133,98.764322 15.650014,103.9898 31.018415,96.452287 46.386816,88.914778 58.459134,67.40211 60.279018,51.9601 62.098902,36.51809 40.275237,31.93749 46.657366,14.306641 53.039495,-3.3242084 103.04891,-4.6128883 109.21177,-22.265625 c 6.16286,-17.652737 9.12312,-21.413282 -14.363835,-37.03683 -23.486954,-15.623548 -103.0124175,-13.410748 -129.481026,3.477958 -26.468609,16.888706 -23.749295,31.204594 -26.223493,52.6939167 -2.474198,21.4893223 7.619385,53.2011653 16.34347,69.0206473 8.724085,15.819482 13.096767,20.632999 26.226284,26.753627 z"
         id="path3315"
         sodipodi:nodetypes="zzzzzzzzzz" />
      <path
         style="fill:#ffffff;fill-opacity:0.0508005;stroke:none;stroke-width:0.789515px;stroke-linecap:butt;stroke-linejoin:miter;stroke-opacity:1"
         d="m -25.120034,72.928096 c 10.365951,4.832328 26.7936478,8.957921 38.927232,3.006941 C 25.940781,69.984061 35.472058,52.999486 36.908884,40.807787 38.345709,28.616088 21.115598,24.999636 26.154385,11.079815 31.193171,-2.8400052 70.676356,-3.8574374 75.542027,-17.794538 c 4.86567,-13.937101 7.20284,-16.906108 -11.340464,-29.241134 -18.543303,-12.335026 -81.329852,-10.587987 -102.227216,2.7459 -20.897364,13.333887 -18.750425,24.636496 -20.703841,41.6026391 -1.953417,16.9661429 6.015619,42.0031199 12.903415,54.4928379 6.887796,12.489719 10.340094,16.290063 20.706045,21.122391 z"
         id="path3315-7"
         sodipodi:nodetypes="zzzzzzzzzz" />
    </g>
    <g
       id="g3767"
       transform="rotate(12.093948,76.640387,69.856298)">
      <path
         style="fill:#000000;fill-opacity:0.0508005;stroke:none;stroke-width:1px;stroke-linecap:butt;stroke-linejoin:miter;stroke-opacity:1"
         d="m 223.879,-31.571212 c -14.76211,3.372162 -39.17805,7.154565 -45.72913,21.6077934 -6.55108,14.4532287 19.69585,28.0203956 12.25994,42.9176726 -7.43591,14.897277 -39.6241,8.59485 -51.59275,19.810433 -11.96865,11.215583 -20.4274,21.514076 -18.04859,39.192734 2.37881,17.678659 21.43674,44.549969 41.1065,48.895719 19.66976,4.34575 35.51635,-27.03324 51.63419,-24.1095 16.11784,2.92374 23.56146,12.08627 28.89983,29.50356 5.33837,17.41729 -21.44059,45.74068 -12.19089,66.9009 9.2497,21.16022 38.97939,36.57157 59.54179,37.85902 20.5624,1.28745 22.26091,22.30303 47.97435,-22.66135 25.71344,-44.96438 13.36624,-220.7218338 -23.30651,-256.671473 -36.67275,-35.949639 -35.16771,-3.082015 -50.27284,-3.557237 -15.10513,-0.475222 -25.51377,-3.060434 -40.27589,0.311728 z"
         id="path2686"
         sodipodi:nodetypes="zzzzzzzzzzzzzz" />
      <path
         style="fill:#000000;fill-opacity:0.0508005;stroke:none;stroke-width:1px;stroke-linecap:butt;stroke-linejoin:miter;stroke-opacity:1"
         d="m 311.9793,239.09048 c -36.36437,31.9488 -31.54525,-2.98651 -42.10679,-7.9293 -10.56154,-4.94279 -16.09913,-3.37134 -20.92712,-17.24757 -4.82799,-13.87623 12.76215,-43.90378 12.83209,-59.67003 0.0699,-15.76625 -0.50982,-23.83576 -6.76526,-32.87533 -6.25544,-9.03957 -18.1291,-14.5738 -27.3925,-17.29097 -9.2634,-2.71717 -16.88659,-2.70313 -25.52805,-0.19335 -8.64146,2.50978 -16.66489,12.17633 -23.91812,15.4285 -7.25323,3.25217 -10.34461,7.91433 -18.53394,5.13165 -8.18933,-2.78268 -17.61606,-14.37454 -19.65259,-26.090341 -2.03653,-11.715802 1.29743,-27.933616 11.48259,-36.941594 10.18516,-9.007978 31.55856,-1.197789 42.21333,-7.631387 10.65477,-6.433598 17.68942,-13.854917 19.56579,-25.04468 1.87637,-11.189763 -15.59972,-23.5593672 -11.79235,-34.3254572 3.80737,-10.7660898 14.73936,-13.6125648 27.29977,-17.1173508 12.56041,-3.504786 34.32085,-2.616107 46.01323,0.72802 11.69238,3.344127 -0.55693,-25.282639 23.0954,13.885652 23.65233,39.168291 50.47889,215.234738 14.11452,247.183538 z"
         id="path2930"
         sodipodi:nodetypes="zzzzzzzzzzzzzzzzzz" />
    </g>
    <path
       style="fill:#ffffff;fill-opacity:0.623023;stroke:#ffffff;stroke-width:0.916116px;stroke-linecap:butt;stroke-linejoin:miter;stroke-opacity:1"
       d="m 73.017344,-165.35391 c 16.055038,-0.74138 34.498936,6.25677 45.901366,13.10727 11.40242,6.85051 15.78248,14.20284 22.3645,22.91356 6.58201,8.71071 4.99262,23.18217 16.71186,29.01181 11.71925,5.829626 33.48649,4.344306 45.10866,-6.93095 11.62217,-11.27524 11.84074,-33.54881 11.19983,-50.49977 -0.64091,-16.95096 -4.62569,-34.47396 -14.41283,-47.53336 -9.78713,-13.0594 -23.89746,-26.14475 -40.5862,-25.77217 -16.68874,0.37257 -28.62677,23.76931 -44.08922,30.74594 -15.462434,6.97664 -30.056969,11.7571 -46.857531,11.2672 -16.800562,-0.4899 -41.589035,-4.81015 -50.75076,-15.35811 -9.1617245,-10.54795 -11.7782886,-18.9614 -5.483908,-29.5471 6.294381,-10.58571 25.581778,-9.36962 41.108222,-11.30251 15.526444,-1.9329 51.316727,1.08545 51.316727,1.08545 0,0 -33.085516,8.37312 -44.528633,11.86197 -11.443117,3.48885 -21.928497,2.5241 -24.282114,8.35653 -2.353617,5.83244 -1.174511,5.65187 4.538286,9.94755 5.712795,4.29567 19.417422,5.34805 31.40592,3.83441 11.988498,-1.51364 21.832675,-6.67419 38.315291,-14.91016 16.48262,-8.23598 40.17979,-34.70247 59.14009,-36.66206 18.9603,-1.95959 29.00572,4.30659 43.2016,15.92313 14.19588,11.61655 26.73648,27.72699 34.41504,54.46988 7.67855,26.74288 9.75448,75.99805 0.0527,102.181656 -9.70173,26.1836 -23.94921,38.28858 -42.778,48.81025 -18.82879,10.52169 -45.89735,5.11469 -64.12657,10.17245 -18.22923,5.05775 -26.45988,15.5892 -45.068239,18.17211 -18.60836,2.5829105 -48.144576,3.4441905 -64.031657,-7.01644 -15.88705,-10.46063 -21.4557343,-27.41218 -25.461475,-42.92387 -4.0057408,-15.51171 -2.5765405,-31.11446 1.1723611,-45.791806 3.7489019,-14.67734 9.0095089,-29.28405 20.6085979,-39.84036 11.599088,-10.55631 29.841047,-17.03113 45.896086,-17.7725 z"
       id="path1999"
       sodipodi:nodetypes="zzzzzzzzzzzzzczzzzzzzzzzzzzzzzz" />
    <g
       id="g2109"
       transform="rotate(9.694938,16.994936,110.26769)">
      <g
         id="g1423"
         transform="matrix(8.6878948,0,0,8.6878948,14.40033,102.49076)">
        <circle
           style="opacity:1;fill:none;fill-opacity:1;fill-rule:evenodd;stroke:#ffffff;stroke-width:2;stroke-linecap:butt;stroke-linejoin:round;stroke-miterlimit:4;stroke-dasharray:none;stroke-opacity:1"
           id="path1306"
           transform="matrix(0.379217,0,0,0.379217,0.434427,0.396893)"
           cx="19.950512"
           cy="20.049488"
           r="19.950512" />
        <path
           style="color:#000000;display:inline;overflow:visible;visibility:visible;fill:#ffffff;fill-opacity:0.351598;fill-rule:evenodd;stroke:none;stroke-width:2;marker:none"
           d="m 1.4095118,9.7105195 c 0,0 -0.54082329,-3.7983406 1.0564921,-5.9364793 1.5973152,-2.1381388 5.3327692,-2.6160756 5.3327692,-2.6160756 0,0 -2.4837351,1.1709323 -4.0810507,3.3090709 -1.5973153,2.1381389 -2.3082106,5.243484 -2.3082106,5.243484 z"
           id="path2767"
           sodipodi:nodetypes="cscsc"
           inkscape:connector-curvature="0" />
        <path
           style="color:#000000;display:inline;overflow:visible;visibility:visible;fill:#ffffff;fill-opacity:0.39726;fill-rule:evenodd;stroke:none;stroke-width:2;marker:none"
           d="m 1.6890046,7.631036 c 0,0 0.099986,-2.579673 0.9604171,-3.731431 C 3.5098524,2.7478473 5.593189,2.0990822 5.593189,2.0990822 c 0,0 -1.3850826,0.9962887 -2.2455136,2.1480464 C 2.4872446,5.3988866 1.6890046,7.631036 1.6890046,7.631036 Z"
           id="path3497"
           sodipodi:nodetypes="cscsc"
           inkscape:connector-curvature="0" />
        <path
           style="color:#000000;display:inline;overflow:visible;visibility:visible;opacity:1;fill:#000000;fill-opacity:0.219608;fill-rule:evenodd;stroke:none;stroke-width:2;stroke-linecap:butt;stroke-linejoin:miter;stroke-miterlimit:4;stroke-dasharray:none;stroke-dashoffset:0;stroke-opacity:1;marker:none;marker-start:none;marker-mid:none;marker-end:none"
           d="m 14.443078,6.1941895 c 0,0 0.540824,3.7983408 -1.056492,5.9364785 -1.597315,2.138139 -5.3327695,2.616076 -5.3327695,2.616076 0,0 2.7292715,-1.081647 4.3265865,-3.219785 1.597316,-2.1381387 2.062675,-5.3327695 2.062675,-5.3327695 z"
           id="path3499"
           sodipodi:nodetypes="cscsc" />
        <path
           style="color:#000000;display:inline;overflow:visible;visibility:visible;opacity:1;fill:#000000;fill-opacity:0.172549;fill-rule:evenodd;stroke:none;stroke-width:2;stroke-linecap:butt;stroke-linejoin:miter;stroke-miterlimit:4;stroke-dasharray:none;stroke-dashoffset:0;stroke-opacity:1;marker:none;marker-start:none;marker-mid:none;marker-end:none"
           d="m 14.163585,8.273673 c 0,0 -0.09999,2.579673 -0.960417,3.731431 -0.86043,1.151757 -2.943767,1.800522 -2.943767,1.800522 0,0 1.541332,-0.973967 2.401763,-2.125724 0.860431,-1.151759 1.502421,-3.406229 1.502421,-3.406229 z"
           id="path3501"
           sodipodi:nodetypes="cscsc" />
        <path
           style="color:#000000;display:inline;overflow:visible;visibility:visible;fill:#ffffff;fill-opacity:0.435294;fill-rule:evenodd;stroke:none;stroke-width:2;marker:none"
           d="m 2.2247189,5.6221072 c 0,0 -0.1009069,-0.4814587 0.7595242,-1.6332167 0.8604307,-1.1517577 1.3143031,-1.0415942 1.3143031,-1.0415942 0,0 -0.3136541,0.036467 -1.1740851,1.188225 -0.8604308,1.151758 -0.8997422,1.4865859 -0.8997422,1.4865859 z"
           id="path3497-1"
           sodipodi:nodetypes="cscsc"
           inkscape:connector-curvature="0" />
      </g>
      <path
         style="fill:#fffff7;fill-opacity:0.993925;stroke:none;stroke-width:1px;stroke-linecap:butt;stroke-linejoin:miter;stroke-opacity:1"
         d="m 38.971764,188.08172 18.784494,28.6394 11.90481,-6.72777 -18.563528,-29.11982 z"
         id="path1458"
         sodipodi:nodetypes="ccccc" />
      <path
         style="fill:#fffff7;fill-opacity:0.993925;stroke:none;stroke-width:1px;stroke-linecap:butt;stroke-linejoin:miter;stroke-opacity:1"
         d="m 70.733365,170.29308 18.784494,28.6394 11.904811,-6.72777 -18.563529,-29.11982 z"
         id="path1458-3"
         sodipodi:nodetypes="ccccc" />
    </g>
    <g
       id="g4612">
      <path
         style="fill:none;stroke:#fffff4;stroke-width:4;stroke-linecap:butt;stroke-linejoin:miter;stroke-miterlimit:4;stroke-dasharray:none;stroke-opacity:1"
         d="m -1.816342,-101.43024 127.090722,-28.06372 -92.713302,44.186461 c 0,0 -8.07807,-9.500157 -13.98343,-12.375327 -5.90535,-2.875184 -20.39399,-3.747414 -20.39399,-3.747414 z"
         id="path3319"
         sodipodi:nodetypes="ccczc" />
      <path
         style="fill:none;stroke:#fffff4;stroke-width:4;stroke-linecap:butt;stroke-linejoin:miter;stroke-miterlimit:4;stroke-dasharray:none;stroke-opacity:1"
         d="m 39.645538,-73.13019 91.907962,-50.78339 -83.365722,74.57994 c 0,0 -0.71339,-8.21578 -2.13652,-12.24496 -1.42314,-4.02918 -6.40572,-11.55159 -6.40572,-11.55159 z"
         id="path3321"
         sodipodi:nodetypes="ccczc" />
      <path
         style="fill:none;stroke:#fffff4;stroke-width:4;stroke-linecap:butt;stroke-linejoin:miter;stroke-miterlimit:4;stroke-dasharray:none;stroke-opacity:1"
         d="m 51.436688,-36.35504 c 0,0 1.01658,9.04042 0.0415,14.77646 -0.97489,5.73607 -6.7059,18.9838297 -6.7059,18.9838297 L 138.06307,-110.67814 Z"
         id="path3323"
         sodipodi:nodetypes="czccc" />
    </g>
    <g
       id="g1202"
       transform="translate(-3.2324219)">
      <path
         style="fill:none;stroke:#ffffff;stroke-width:4;stroke-linecap:butt;stroke-linejoin:miter;stroke-miterlimit:4;stroke-dasharray:none;stroke-opacity:1"
         d="M 105.26613,105.1248 166.82339,80.958432 16.891865,58.276582 156.7999,6.5695603 87.496273,48.161327 251.68899,68.32204 154.26368,176.544 c 0,0 -1.48909,-22.57103 -11.98849,-41.23572 C 131.7758,116.6436 105.26613,105.1248 105.26613,105.1248 Z"
         id="path5188"
         sodipodi:nodetypes="ccccccczc" />
      <path
         style="fill:#000000;fill-opacity:0.146596;stroke:none;stroke-width:1px;stroke-linecap:butt;stroke-linejoin:miter;stroke-opacity:1"
         d="m 157.65877,165.31186 -1.95323,-11.05052 83.57434,-81.08447 z"
         id="path5896" />
      <path
         style="fill:#000000;fill-opacity:0.146596;stroke:none;stroke-width:1px;stroke-linecap:butt;stroke-linejoin:miter;stroke-opacity:1"
         d="M 34.61635,56.775948 177.58231,79.051339 175.67104,76.529017 41.802455,54.707031 Z"
         id="path5898" />
      <path
         style="fill:#ffffff;fill-opacity:0.377599;stroke:none;stroke-width:1px;stroke-linecap:butt;stroke-linejoin:miter;stroke-opacity:1"
         d="M 119.62193,105.36272 179.1197,80.01116 126.9308,107.40653 Z"
         id="path6319" />
      <path
         style="fill:#ffffff;fill-opacity:0.377599;stroke:none;stroke-width:1px;stroke-linecap:butt;stroke-linejoin:miter;stroke-opacity:1"
         d="M 84.172711,51.298828 240.98354,70.915178 231.65039,72.993861 79.199218,52.816685 Z"
         id="path6321" />
      <path
         style="fill:#ffffff;fill-opacity:0.38;stroke:none;stroke-width:1px;stroke-linecap:butt;stroke-linejoin:miter;stroke-opacity:1"
         d="M 45.216164,51.778209 125.54302,21.517038 50.309345,52.287232 Z"
         id="path6886" />
      <path
         style="fill:#000000;fill-opacity:0.146596;stroke:none;stroke-width:1px;stroke-linecap:butt;stroke-linejoin:miter;stroke-opacity:1"
         d="M 82.350725,47.617187 120.95843,24.934431 81.810825,46.769671 Z"
         id="path1077" />
    </g>
    <g
       id="g2538"
       transform="translate(534.67453)">
      <path
         style="fill:#000000;fill-opacity:0.0508005;stroke:none;stroke-width:1px;stroke-linecap:butt;stroke-linejoin:miter;stroke-opacity:1"
         d="m 107.01059,262.01693 c 0,0 27.79868,-16.57952 35.43351,-27.67049 7.63484,-11.09097 10.51932,-34.25212 10.51932,-34.25212 L 270.84912,59.774593 122.8894,40.60537 190.40981,-7.0217439 159.28448,-7.964816 -36.981053,59.837727 l 1.998602,13.230631 131.400722,16.02828 -28.48354,14.333512 c 0,0 -21.274169,0.27631 -30.870814,2.2689 -9.596645,1.99259 -15.879279,2.78937 -26.295533,9.18607 -10.41625441,6.3967 -32.802336,31.514 -32.802336,31.514 l -40.167374,11.58321 V -21.05734 H 301.11227 v 287.44759 z"
         id="path1908"
         sodipodi:nodetypes="czccccccccczzcccccc" />
      <path
         style="fill:#000000;fill-opacity:0.0508005;stroke:none;stroke-width:1px;stroke-linecap:butt;stroke-linejoin:miter;stroke-opacity:1"
         d="m 136.04353,258.09989 c 0,0 15.8943,-7.58811 21.1342,-12.80134 5.2399,-5.21323 7.90966,-9.52961 10.26089,-16.74665 2.35123,-7.21704 2.07449,-25.81892 2.07449,-25.81892 L 296.52483,54.574497 285.08649,49.13923 161.1077,34.245257 l 51.80106,-44.898159 -64.14621,-3.384486 -201.714559,67.968749 3.66211,25.043248 115.119977,11.809431 -4.870257,5.877511 c 0,0 -21.503983,0.123553 -32.096819,2.219587 -10.592836,2.096032 -19.1185019,4.454422 -30.9430801,10.311102 -11.8245779,5.85668 -38.4751669,26.21513 -38.4751669,26.21513 l -20.820313,2.97293 1.363003,-161.376952 362.456745,-0.696149 3.0692,151.549941 0.004,136.88337 z"
         id="path2116"
         sodipodi:nodetypes="czzcccccccccczzccccccc" />
      <path
         style="fill:#000000;fill-opacity:0.0508005;stroke:none;stroke-width:1px;stroke-linecap:butt;stroke-linejoin:miter;stroke-opacity:1"
         d="m 159.39891,261.69856 c 0,0 19.2359,-10.79485 23.93588,-17.65597 4.69998,-6.86112 4.77527,-12.86987 5.29739,-19.44741 0.52212,-6.57754 -2.08542,-19.32114 -2.08542,-19.32114 L 315.21692,59.671999 309.13035,40.15159 195.28695,27.137985 l 48.77735,-45.585107 -96.55244,-8.732295 -212.530565,75.611496 1.819064,37.391428 86.656093,5.985943 -23.56299153,5.214518 -57.75231447,21.872172 -25.044681,1.04961 11.186651,-148.492424 260.191224,-7.347281 145.38305,9.308397 -7.2585,209.170628 -35.62564,102.96059 z"
         id="path2364"
         sodipodi:nodetypes="czzcccccccccccccccccc" />
    </g>
  </g>
</svg>
